<svg fill="none" height="24" viewBox="0 0 24 24" width="24" xmlns="http://www.w3.org/2000/svg"><g stroke="#000" stroke-linecap="round" stroke-linejoin="round" stroke-width="1.8"><path d="m2 6.44455v4.63465c.00013.5892.23429 1.1542.65098 1.5708l6.34322 6.3432c.50207.502 1.183.784 1.893.784s1.3909-.282 1.8929-.784l3.9904-3.9903c.502-.5021.784-1.183.784-1.893s-.282-1.3909-.784-1.8929l-6.3432-6.34325c-.4166-.4167-.98164-.65086-1.57085-.65099h-4.63466c-.58925 0-1.15438.23408-1.57104.65075-.41667.41667-.65075.98179-.65075 1.57104z"/><path d="m18.6634 18.6644 1.7686-1.7685c1.004-1.0042 1.568-2.366 1.568-3.786 0-1.4199-.564-2.7818-1.568-3.7859l-5.1013-5.10124m-8.88712 4.44359h-.01111"/></g></svg>