<svg width="24" height="24" viewBox="0 0 24 24" fill="none" xmlns="http://www.w3.org/2000/svg">
<path d="M12 12.5006L21.4976 7.25095M12 12.5006L2.50118 7.25095M12 12.5006V23M21.4976 7.25095C21.1681 6.70507 20.6954 6.25252 20.1271 5.93881L13.8729 2.4814C13.3029 2.16597 12.6572 2 12 2C11.3428 2 10.6971 2.16597 10.1271 2.4814L3.87294 5.93995C3.29294 6.26004 2.82588 6.7152 2.50118 7.25095M21.4976 7.25095C21.8212 7.7867 22 8.40418 22 9.04549V15.958C21.9996 16.5891 21.8262 17.2088 21.4972 17.7543C21.1683 18.2997 20.6955 18.7515 20.1271 19.0636L13.8729 22.521C13.3026 22.8356 12.6569 23.0007 12 23M2.50118 7.25095C2.17276 7.7955 1.99983 8.41432 2 9.04435V15.9569C2 17.2395 2.71412 18.4223 3.87294 19.0625L10.1271 22.5199C10.6972 22.8349 11.343 23.0004 12 23" stroke="black" stroke-width="2" stroke-linejoin="round"/>
</svg>
