<svg width="24" height="24" viewBox="0 0 24 24" fill="none" xmlns="http://www.w3.org/2000/svg">
<path d="M16 6C16 4.114 16 3.172 15.414 2.586C14.828 2 13.886 2 12 2C10.114 2 9.172 2 8.586 2.586C8 3.172 8 4.114 8 6M2 14C2 10.229 2 8.343 3.172 7.172C4.344 6.001 6.229 6 10 6H14C17.771 6 19.657 6 20.828 7.172C21.999 8.344 22 10.229 22 14C22 17.771 22 19.657 20.828 20.828C19.656 21.999 17.771 22 14 22H10C6.229 22 4.343 22 3.172 20.828C2.001 19.656 2 17.771 2 14Z" stroke="black" stroke-width="2"/>
<path d="M17 9C17 9.26522 16.8946 9.51957 16.7071 9.70711C16.5196 9.89464 16.2652 10 16 10C15.7348 10 15.4804 9.89464 15.2929 9.70711C15.1054 9.51957 15 9.26522 15 9C15 8.73478 15.1054 8.48043 15.2929 8.29289C15.4804 8.10536 15.7348 8 16 8C16.2652 8 16.5196 8.10536 16.7071 8.29289C16.8946 8.48043 17 8.73478 17 9ZM9 9C9 9.26522 8.89464 9.51957 8.70711 9.70711C8.51957 9.89464 8.26522 10 8 10C7.73478 10 7.48043 9.89464 7.29289 9.70711C7.10536 9.51957 7 9.26522 7 9C7 8.73478 7.10536 8.48043 7.29289 8.29289C7.48043 8.10536 7.73478 8 8 8C8.26522 8 8.51957 8.10536 8.70711 8.29289C8.89464 8.48043 9 8.73478 9 9Z" fill="black"/>
</svg>
