<svg fill="none" height="24" viewBox="0 0 24 24" width="24" xmlns="http://www.w3.org/2000/svg"><path clip-rule="evenodd" d="m6.14065 2c.23309 0 .45664.09151.62147.25441.16482.16289.25742.38383.25742.6142v1.93177c3.31376-.29111 6.64706-.29111 9.96086 0v-1.93177c0-.23037.0926-.45131.2574-.6142.1648-.1629.3884-.25441.6215-.25441s.4566.09151.6214.25441c.1649.16289.2575.38383.2575.6142v2.10318c.8549.11981 1.6466.51284 2.2544 1.11908.6077.60624.9979 1.39237 1.1112 2.23837l.1019.75627c.4266 3.18029.3891 6.40449-.1101 9.57549-.1204.7634-.4939 1.4656-1.062 1.9964-.568.5308-1.2984.86-2.0763.936l-1.398.1367c-3.6973.3599-7.4214.3599-11.11866 0l-1.39803-.1367c-.77794-.076-1.50829-.4052-2.07633-.936-.56803-.5308-.94157-1.233-1.06192-1.9964-.49931-3.1702-.53641-6.3948-.11015-9.57549l.10195-.75627c.11323-.846.50349-1.63213 1.1112-2.23837s1.39946-.99927 2.25439-1.11908v-2.10318c0-.23037.0926-.45131.25742-.6142.16483-.1629.38838-.25441.62148-.25441zm.52147 4.57813c3.55078-.34628 7.12488-.34628 10.67568 0l1.0605.10423c1.016.09845 1.8281.87556 1.9629 1.87503l.1019.75627c.0352.26406.0672.5285.0961.79334h-17.11853c.02891-.26484.06094-.52928.0961-.79334l.10195-.75627c.06503-.48571.29436-.93542.65072-1.27603.35635-.34062.81878-.55213 1.31215-.60015zm-3.3609 5.26607c-.11504 2.1888-.00116 4.3836.33984 6.5493.0604.3828.24773.735.53259 1.0012.28485.2662.65109.4314 1.04122.4696l1.39804.1367c3.58239.3497 7.19169.3497 10.77409 0l1.398-.1367c.3902-.0382.7564-.2034 1.0413-.4696.2848-.2662.4722-.6184.5326-1.0012.3421-2.1681.4546-4.3627.3398-6.5493z" fill="#000" fill-rule="evenodd"/></svg>