<svg width="24" height="24" viewBox="0 0 24 24" fill="none" xmlns="http://www.w3.org/2000/svg">
<path fill-rule="evenodd" clip-rule="evenodd" d="M13.8 6.6C13.3272 6.6 12.8591 6.69312 12.4223 6.87404C11.9856 7.05495 11.5887 7.32013 11.2544 7.65442C10.9201 7.98871 10.655 8.38557 10.474 8.82234C10.2931 9.25911 10.2 9.72724 10.2 10.2C10.2 10.6728 10.2931 11.1409 10.474 11.5777C10.655 12.0144 10.9201 12.4113 11.2544 12.7456C11.5887 13.0799 11.9856 13.3451 12.4223 13.526C12.8591 13.7069 13.3272 13.8 13.8 13.8C14.7548 13.8 15.6705 13.4207 16.3456 12.7456C17.0207 12.0705 17.4 11.1548 17.4 10.2C17.4 9.24522 17.0207 8.32955 16.3456 7.65442C15.6705 6.97929 14.7548 6.6 13.8 6.6ZM9 10.2C9 8.92696 9.50571 7.70606 10.4059 6.80589C11.3061 5.90571 12.527 5.4 13.8 5.4C15.073 5.4 16.2939 5.90571 17.1941 6.80589C18.0943 7.70606 18.6 8.92696 18.6 10.2C18.6 11.473 18.0943 12.6939 17.1941 13.5941C16.2939 14.4943 15.073 15 13.8 15C12.527 15 11.3061 14.4943 10.4059 13.5941C9.50571 12.6939 9 11.473 9 10.2Z" fill="white"/>
<path fill-rule="evenodd" clip-rule="evenodd" d="M3 4.8C3 4.16348 3.25286 3.55303 3.70294 3.10295C4.15303 2.65286 4.76348 2.4 5.4 2.4C6.03652 2.4 6.64697 2.65286 7.09706 3.10295C7.54714 3.55303 7.8 4.16348 7.8 4.8V8.7264C7.8 9.9264 8.22 11.0868 8.988 12.0084L10.6608 14.016C10.7582 14.1387 10.8037 14.2946 10.7876 14.4504C10.7716 14.6062 10.6952 14.7496 10.5749 14.8499C10.4546 14.9501 10.2998 14.9994 10.1436 14.9871C9.98748 14.9748 9.84234 14.9019 9.7392 14.784L8.0664 12.7764C7.11875 11.6396 6.59983 10.2064 6.6 8.7264V4.8C6.6 4.48174 6.47357 4.17652 6.24853 3.95147C6.02348 3.72643 5.71826 3.6 5.4 3.6C5.08174 3.6 4.77652 3.72643 4.55147 3.95147C4.32643 4.17652 4.2 4.48174 4.2 4.8V9.3C4.20015 10.1866 4.41858 11.0595 4.836 11.8416L8.9292 19.518C8.99761 19.6577 9.00908 19.8185 8.96118 19.9666C8.91329 20.1146 8.80978 20.2382 8.67249 20.3114C8.5352 20.3845 8.37486 20.4015 8.22529 20.3587C8.07573 20.3159 7.94862 20.2167 7.8708 20.082L3.7764 12.4056C3.26667 11.4498 3.00002 10.3832 3 9.3V4.8Z" fill="white"/>
<path fill-rule="evenodd" clip-rule="evenodd" d="M9.6 14.4C9.6 14.2409 9.66322 14.0883 9.77574 13.9757C9.88826 13.8632 10.0409 13.8 10.2 13.8H13.2C14.9504 13.8 16.6292 14.4954 17.8669 15.7331C19.1046 16.9708 19.8 18.6496 19.8 20.4V22.8C19.8 22.9591 19.7368 23.1117 19.6243 23.2243C19.5117 23.3368 19.3591 23.4 19.2 23.4C19.0409 23.4 18.8883 23.3368 18.7757 23.2243C18.6632 23.1117 18.6 22.9591 18.6 22.8V20.4C18.6 18.9678 18.0311 17.5943 17.0184 16.5816C16.0057 15.5689 14.6322 15 13.2 15H10.2C10.0409 15 9.88826 14.9368 9.77574 14.8243C9.66322 14.7117 9.6 14.5591 9.6 14.4ZM8.4 19.2C8.55913 19.2 8.71175 19.2632 8.82427 19.3757C8.93679 19.4883 9 19.6409 9 19.8V22.8C9 22.9591 8.93679 23.1117 8.82427 23.2243C8.71175 23.3368 8.55913 23.4 8.4 23.4C8.24087 23.4 8.08826 23.3368 7.97574 23.2243C7.86322 23.1117 7.8 22.9591 7.8 22.8V19.8C7.8 19.6409 7.86322 19.4883 7.97574 19.3757C8.08826 19.2632 8.24087 19.2 8.4 19.2Z" fill="white"/>
</svg>
