<svg height="180" width="180" xmlns="http://www.w3.org/2000/svg"><g transform="translate(101 12)"><path d="m0 0c4.45743963 4.57791097 6.14644378 8.7405877 7 15l1.25-1.171875c5.24338401-4.7284088 10.58839433-8.91174753 17.875-9.328125 5.53677188.71442218 8.34815625 2.88833159 12.125 6.875 4.31627185 6.47440777 4.23745298 13.0524747 3.75 20.625-.33.66-.66 1.32-1 2 1.05574219-.47953125 1.05574219-.47953125 2.1328125-.96875 4.91620916-1.76822782 9.7254112-1.81339851 14.8671875-1.03125 3.86460946 1.99227281 6.16755782 4.66085389 8.4375 8.3125 1.9639644 9.38338545-.51061148 16.56544509-5.1875 24.75-3.19896103 4.17642134-6.69897605 8.05895442-10.25 11.9375.60328125.43570313 1.2065625.87140625 1.828125 1.3203125 5.74536373 4.28122265 9.85571958 7.73122124 12.171875 14.6796875.77812071 6.46733117-.06124405 11.72229018-4 17-7.76144298 7.90754073-19.00042782 10.91343945-29.80078125 11.16796875-1.83718967.01502609-3.67446832.02111892-5.51171875.01953125-1.4545459-.0012085-1.4545459-.0012085-2.93847656-.00244141-10.54361173-.08835428-20.98154329-.85376553-31.18652344-3.62255859-5.00480045-1.13668349-7.81999356.8272991-12.1015625 3.3125-3.8984716 1.78215844-7.42846615 1.37020076-11.4609375.125-.99-.66-1.98-1.32-3-2-4.35777129.31552169-7.46744174 1.58054869-11.25 3.6875-5.19212656 2.69005309-10.40183982 4.72702178-15.9375 6.5625-.73573242.24580811-1.47146484.49161621-2.22949219.74487305-6.59158375 2.13322004-13.47738364 4.27927187-20.45800781 4.31762695-.71929687.01675781-1.43859375.03351563-2.1796875.05078125-1.9453125-.36328125-1.9453125-.36328125-3.765625-1.6328125-1.1796875-1.73046875-1.1796875-1.73046875-.96337891-3.74414063.78369141-1.98632812.78369141-1.98632812 4.14306641-3.49804687 1.54258616-.50927321 3.08998248-1.00409219 4.640625-1.48828125 1.79789189-.60767673 3.59471453-1.21852343 5.390625-1.83203125.95173096-.32097656 1.90346191-.64195312 2.8840332-.97265625 8.55374281-2.89733735 16.7802547-5.80939608 24.71362305-10.1640625 2.01171875-1.03125 2.01171875-1.03125 4.01171875-1.03125-.433125-1.03125-.86625-2.0625-1.3125-3.125-.6875-3.875-.6875-3.875.29296875-5.67578125 1.39453125-1.63671875 1.39453125-1.63671875 4.01953125-4.19921875-.47308594-.38929687-.94617187-.77859375-1.43359375-1.1796875-11.16802731-9.44819464-21.45275319-20.27802309-22.8046875-35.50390625-.16086666-5.96899991-.01027659-9.73243595 4.23828125-14.31640625 4.22868463-3.47691847 7.512255-4.90853758 13-5 4.14410271.92852828 8.19401343 2.09700672 12 4 .01417969-.78761719.02835938-1.57523438.04296875-2.38671875.59326212-13.5488242 5.32918935-26.98543935 15.08984375-36.74609375 6.80172298-5.66415259 14.21809726-9.93734761 22.8671875-5.8671875z" fill="transparent"/><path d="m0 0c4.45743963 4.57791097 6.14644378 8.7405877 7 15l1.25-1.171875c5.24338401-4.7284088 10.58839433-8.91174753 17.875-9.328125 5.53677188.71442218 8.34815625 2.88833159 12.125 6.875 4.31627185 6.47440777 4.23745298 13.0524747 3.75 20.625-.33.66-.66 1.32-1 2 1.05574219-.47953125 1.05574219-.47953125 2.1328125-.96875 4.91620916-1.76822782 9.7254112-1.81339851 14.8671875-1.03125 3.86460946 1.99227281 6.16755782 4.66085389 8.4375 8.3125 1.9639644 9.38338545-.51061148 16.56544509-5.1875 24.75-3.19896103 4.17642134-6.69897605 8.05895442-10.25 11.9375.60328125.43570313 1.2065625.87140625 1.828125 1.3203125 5.74536373 4.28122265 9.85571958 7.73122124 12.171875 14.6796875.77812071 6.46733117-.06124405 11.72229018-4 17-7.76144298 7.90754073-19.00042782 10.91343945-29.80078125 11.16796875-1.83718967.01502609-3.67446832.02111892-5.51171875.01953125-1.4545459-.0012085-1.4545459-.0012085-2.93847656-.00244141-10.54361173-.08835428-20.98154329-.85376553-31.18652344-3.62255859-5.00480045-1.13668349-7.81999356.8272991-12.1015625 3.3125-3.8984716 1.78215844-7.42846615 1.37020076-11.4609375.125-.99-.66-1.98-1.32-3-2-4.35777129.31552169-7.46744174 1.58054869-11.25 3.6875-5.19212656 2.69005309-10.40183982 4.72702178-15.9375 6.5625-.73573242.24580811-1.47146484.49161621-2.22949219.74487305-6.59158375 2.13322004-13.47738364 4.27927187-20.45800781 4.31762695-.71929687.01675781-1.43859375.03351563-2.1796875.05078125-1.9453125-.36328125-1.9453125-.36328125-3.765625-1.6328125-1.1796875-1.73046875-1.1796875-1.73046875-.96337891-3.74414063.78369141-1.98632812.78369141-1.98632812 4.14306641-3.49804687 1.54258616-.50927321 3.08998248-1.00409219 4.640625-1.48828125 1.79789189-.60767673 3.59471453-1.21852343 5.390625-1.83203125.95173096-.32097656 1.90346191-.64195312 2.8840332-.97265625 8.55374281-2.89733735 16.7802547-5.80939608 24.71362305-10.1640625 2.01171875-1.03125 2.01171875-1.03125 4.01171875-1.03125-.433125-1.03125-.86625-2.0625-1.3125-3.125-.6875-3.875-.6875-3.875.29296875-5.67578125 1.39453125-1.63671875 1.39453125-1.63671875 4.01953125-4.19921875-.47308594-.38929687-.94617187-.77859375-1.43359375-1.1796875-11.16802731-9.44819464-21.45275319-20.27802309-22.8046875-35.50390625-.16086666-5.96899991-.01027659-9.73243595 4.23828125-14.31640625 4.22868463-3.47691847 7.512255-4.90853758 13-5 4.14410271.92852828 8.19401343 2.09700672 12 4 .01417969-.78761719.02835938-1.57523438.04296875-2.38671875.59326212-13.5488242 5.32918935-26.98543935 15.08984375-36.74609375 6.80172298-5.66415259 14.21809726-9.93734761 22.8671875-5.8671875zm-16.8359375 11.73046875c-10.63078343 11.62887008-13.37991125 23.91106372-13.2265625 39.26953125.00451172.87011719.00902344 1.74023438.01367188 2.63671875.01165452 2.12112418.02958455 4.24221235.04882812 6.36328125-2.475.495-2.475.495-5 1-.36351563-.61488281-.72703125-1.22976562-1.1015625-1.86328125-4.1011081-6.63729187-4.1011081-6.63729187-10.8984375-10.13671875-4.05385767-.62367041-7.21289144-.36075809-11 1.375-2.61515749 3.43239421-2.65039481 5.67483251-2.4140625 9.91015625 1.20188833 7.88030555 4.79439722 13.74882722 9.828125 19.8046875 1.5859375 1.91015625 1.5859375 1.91015625 3.5859375 4.91015625h2c.20625.556875.4125 1.11375.625 1.6875 1.95183032 3.28262371 4.31730994 5.01923246 7.375 7.3125h2c-.45375.886875-.9075 1.77375-1.375 2.6875-1.34504299 2.74181841-2.53538715 5.46274331-3.625 8.3125 1.26886964 1.12721436 2.54017562 2.25168658 3.8125 3.375.70769531.62648438 1.41539063 1.25296875 2.14453125 1.8984375 2.52681235 2.13547048 4.36211665 3.61308715 7.66796875 4.1640625 3.5037847-.45419431 4.69112783-1.17735942 7.5625-3.0625 5.74766633-3.36309733 9.61099919-1.89462097 15.8125-.375 18.52989909 3.5387106 36.7955418 5.66076733 53.8515625-4.0546875 2.39404496-1.64519678 3.92073572-3.31475373 4.91015625-6.0546875.795397-4.34914324.54211933-6.36135866-1.69921875-10.265625-5.41990435-5.39004261-12.76277058-6.13497187-20.0625-6.625-.33-1.98-.66-3.96-1-6 .94359375-.63615234.94359375-.63615234 1.90625-1.28515625 10.17080896-6.96945493 19.0398276-13.55307656 23.09375-25.71484375.2315988-1.954862.2315988-1.954862.25-4 .02578125-.680625.0515625-1.36125.078125-2.0625-.43574393-2.57296417-1.2245001-3.42345607-3.328125-4.9375-6.1718698-.90471184-11.15409931 1.79587845-15.99609375 5.32421875-3.84008728 3.21130106-6.44166286 6.72699553-9.00390625 11.05078125-2 2.625-2 2.625-4.75 3-.7425-.12375-1.485-.2475-2.25-.375-.69921875-2.18359375-.69921875-2.18359375-1-5 1.29296875-2.47265625 1.29296875-2.47265625 3.1875-5.0625 6.12606458-9.14008835 9.44025283-18.84528743 7.8125-29.9375-1.29097508-3.35020768-1.29097508-3.35020768-4-5-3.59342368-.82925162-5.75778146-.75927185-8.94921875 1.19140625-9.59049645 7.81936351-15.00163232 18.08914969-19.60546875 29.3046875-1.06183333 2.57422836-2.14944233 5.04426918-3.4453125 7.50390625-1.65 0-3.3 0-5 0-.28377141-5.57356145.63515324-9.87187914 2.4375-15.125 2.19959206-6.59261487 3.71461551-12.39257287 3.8125-19.375.03867188-1.65515625.03867188-1.65515625.078125-3.34375-.36588388-3.51945446-1.12734539-5.40013347-3.328125-8.15625-4.89108894 0-8.37511579 2.4684602-11.8359375 5.73046875z" fill="#fff"/></g></svg>