<svg width="128" height="128" viewBox="0 0 128 128" fill="none" xmlns="http://www.w3.org/2000/svg">
<rect width="128" height="128" rx="8" fill="#3E4A59"/>
<path d="M90.7827 55.6542C90.7827 54.7053 91.0075 53.8812 91.457 53.182C91.9065 52.4827 92.4808 51.9583 93.1801 51.6087C93.8793 51.2091 94.6284 51.0094 95.4276 51.0094C96.2766 50.9594 97.0507 51.1093 97.75 51.4589C99.3981 52.3579 100.896 53.4566 102.245 54.7552C103.643 56.0038 104.992 57.2774 106.29 58.576C108.388 60.4738 110.286 62.3967 111.984 64.3445C113.682 66.2424 115.231 68.0654 116.629 69.8135C120.275 74.6581 122.098 78.354 122.098 80.9011C122.098 84.2474 117.403 91.0898 108.014 101.428C107.464 102.078 106.865 102.777 106.216 103.526C105.566 104.275 104.892 105.024 104.193 105.773C103.494 106.473 102.769 107.097 102.02 107.646C101.271 108.246 100.497 108.72 99.6978 109.07C98.1495 109.669 96.801 109.744 95.6523 109.295C94.5535 108.845 93.7544 108.121 93.255 107.122C92.7555 106.123 92.6307 104.974 92.8804 103.676C93.1301 102.327 93.8543 101.054 95.053 99.8551C95.952 98.9061 96.8759 97.9572 97.8249 97.0082C98.8238 96.0593 99.7977 95.0854 100.747 94.0865C102.345 92.5382 103.843 90.9649 105.242 89.3667C106.64 87.7685 107.964 86.0954 109.212 84.3473C109.862 83.3984 110.211 82.4744 110.261 81.5754C110.311 80.6764 110.161 79.8273 109.812 79.0282C109.462 78.2291 108.987 77.455 108.388 76.7058C107.789 75.9566 107.189 75.2324 106.59 74.5332C104.842 72.3856 103.019 70.3379 101.121 68.39C99.2733 66.4422 97.3005 64.5943 95.2028 62.8462C94.3537 61.9972 93.6795 61.3479 93.1801 60.8984C92.6806 60.3989 92.331 59.9994 92.1312 59.6997C91.6318 59.1503 91.2822 58.526 91.0824 57.8268C90.8826 57.1276 90.7827 56.4034 90.7827 55.6542Z" fill="#FAFAFA" fill-opacity="0.980392"/>
<path d="M54.636 92.6952C54.0367 92.6952 53.4623 92.5953 52.9129 92.3956C52.3635 92.1958 51.8891 91.9211 51.4895 91.5715C51.09 91.2219 50.7903 90.7973 50.5905 90.2979C50.3907 89.7984 50.3408 89.2241 50.4407 88.5748C50.141 87.6758 50.116 86.8767 50.3658 86.1775C50.6155 85.4283 50.9401 84.6791 51.3397 83.93H51.2648C53.0128 80.0343 54.7109 76.2136 56.3591 72.4677C58.0572 68.6719 59.8302 64.9011 61.6782 61.1553C63.3264 57.6592 64.8497 54.3628 66.2481 51.2663C67.6466 48.1697 69.02 45.1231 70.3685 42.1264C70.6183 41.5771 70.9179 41.0277 71.2675 40.4783C71.6171 39.9289 72.0167 39.5044 72.4662 39.2047C72.9157 38.8551 73.4401 38.6303 74.0394 38.5304C74.6388 38.4306 75.363 38.5554 76.212 38.905C77.5106 39.4544 78.4595 40.2286 79.0589 41.2274C79.7081 42.2263 79.9079 43.3751 79.6582 44.6736C78.959 46.4716 78.3846 47.945 77.9351 49.0937C77.5356 50.1925 77.111 51.2163 76.6615 52.1653C76.262 53.1142 75.8125 54.0881 75.313 55.087C74.8136 56.0859 74.1643 57.3845 73.3652 58.9827C72.616 60.5809 71.6671 62.6037 70.5184 65.051C69.4196 67.4483 68.0211 70.5449 66.323 74.3406C65.424 76.3884 64.5001 78.3362 63.5511 80.1841C62.6521 82.0321 61.7531 83.88 60.8541 85.728C60.5544 86.2774 60.2298 86.9516 59.8802 87.7507C59.5306 88.4999 59.156 89.324 58.7564 90.223C58.3569 91.072 57.7825 91.6963 57.0333 92.0959C56.2842 92.4954 55.4851 92.6952 54.636 92.6952Z" fill="#2F8DBD" fill-opacity="0.980392"/>
<path d="M39.3152 25.6542C39.3152 26.4034 39.2153 27.1276 39.0155 27.8268C38.8157 28.526 38.4661 29.1503 37.9667 29.6997C37.7669 29.9994 37.4173 30.3989 36.9179 30.8984C36.4184 31.3479 35.7442 31.9972 34.8951 32.8462C32.7974 34.5943 30.7997 36.4422 28.9018 38.39C27.0538 40.3379 25.2558 42.3856 23.5078 44.5332C22.9084 45.2324 22.3091 45.9566 21.7098 46.7058C21.1104 47.455 20.636 48.2291 20.2863 49.0282C19.9367 49.8273 19.7619 50.6764 19.7619 51.5754C19.8119 52.4744 20.1865 53.3984 20.8857 54.3473C22.1343 56.0954 23.4578 57.7685 24.8563 59.3667C26.2547 60.9649 27.753 62.5382 29.3513 64.0865C30.3002 65.0854 31.2492 66.0593 32.1981 67.0082C33.197 67.9572 34.1459 68.9061 35.0449 69.8551C36.2436 71.0537 36.9678 72.3273 37.2175 73.6758C37.4672 74.9744 37.3424 76.1231 36.8429 77.122C36.3435 78.1209 35.5194 78.8451 34.3707 79.2946C33.2719 79.7441 31.9484 79.6692 30.4001 79.0698C29.601 78.7202 28.8268 78.2457 28.0777 77.6464C27.3285 77.097 26.6043 76.4727 25.9051 75.7735C25.2059 75.0243 24.5316 74.2752 23.8823 73.526C23.2331 72.7768 22.6337 72.0776 22.0843 71.4283C12.6948 61.0898 8 54.2474 8 50.9011C8 48.354 9.82297 44.6581 13.4689 39.8135C14.8674 38.0654 16.4156 36.2424 18.1138 34.3445C19.8119 32.3967 21.7098 30.4738 23.8074 28.576C25.106 27.2774 26.4295 26.0038 27.778 24.7552C29.1765 23.4566 30.6998 22.3579 32.3479 21.4589C33.0472 21.1093 33.7963 20.9594 34.5954 21.0094C35.4445 21.0094 36.2186 21.2091 36.9179 21.6087C37.6171 21.9583 38.1914 22.4827 38.6409 23.182C39.0904 23.8812 39.3152 24.7053 39.3152 25.6542Z" fill="#FAFAFA" fill-opacity="0.980392"/>
</svg>
