<svg fill="none" height="128" viewBox="0 0 128 128" width="128" xmlns="http://www.w3.org/2000/svg"><rect fill="#f5f5f5" height="128" rx="64" width="128"/><path d="m96.8907 43.632-4.16-3.136c-.2987-.2133-.4694-.512-.512-.896-.0427-.384.0213-.7253.192-1.024 0-.0427.128-.1707.384-.384l4.288-3.712-5.632-.448c-.1707-.0427-.2987-.064-.384-.064-.0427-.0427-.0854-.064-.128-.064-.2987-.0853-.5547-.2987-.768-.64-.1707-.384-.2134-.768-.128-1.152l1.6-4.928c.0853-.3413.32-.5973.704-.768s.7253-.2133 1.024-.128c.0853 0 .256.064.512.192l4.8 2.944-1.216-5.504c-.0427-.128-.064-.2347-.064-.32s0-.1493 0-.192c0-.3413.128-.6613.384-.96.2986-.2987.64-.448 1.024-.448h5.1843c.384 0 .704.1493.96.448.298.2987.448.6187.448.96v.192c0 .0853-.022.192-.064.32l-1.344 5.504 4.928-2.944c.256-.128.426-.192.512-.192.341-.0853.682-.0427 1.024.128.384.1707.618.4267.704.768l1.6 4.928c.085.384.042.768-.128 1.152-.171.3413-.427.5547-.768.64-.043 0-.107.0213-.192.064-.043 0-.15.0213-.32.064l-5.632.512 4.288 3.648c.256.2133.384.3413.384.384.213.2987.298.64.256 1.024-.043.384-.235.6827-.576.896l-4.16 3.136c-.342.1707-.704.2347-1.088.192-.384-.0853-.683-.2773-.896-.576-.043-.0427-.086-.0853-.128-.128-.043-.0853-.107-.1707-.192-.256l-2.24-5.248-2.1763 5.248c-.0427.0853-.1067.1707-.192.256-.0427.0427-.0854.0853-.128.128-.1707.2987-.4694.4907-.896.576-.384.0427-.7467-.0213-1.088-.192z" fill="#227093"/><path d="m46.92 93c-.5867 0-1.0667-.1867-1.44-.56-.3734-.3733-.56-.8533-.56-1.44v-52c0-.5867.1866-1.0667.56-1.44.3733-.3733.8533-.56 1.44-.56h36.24c.5867 0 1.0667.1867 1.44.56s.56.8533.56 1.44v6.4c0 .5333-.1867.9867-.56 1.36s-.8533.56-1.44.56h-25.92v12.56h24.16c.5867 0 1.0667.1867 1.44.56s.56.8533.56 1.44v5.92c0 .5333-.1867.9867-.56 1.36s-.8533.56-1.44.56h-24.16v12.96h26.56c.5866 0 1.0667.1867 1.44.56s.56.8533.56 1.44v6.32c0 .5867-.1867 1.0667-.56 1.44s-.8534.56-1.44.56z" fill="#3e4a59"/></svg>