<svg fill="none" height="128" viewBox="0 0 128 128" width="128" xmlns="http://www.w3.org/2000/svg" xmlns:xlink="http://www.w3.org/1999/xlink"><clipPath id="a"><path d="m5 10h117v108h-117z"/></clipPath><rect fill="#3e4a59" height="128" rx="8" width="128"/><g clip-path="url(#a)"><path d="m54.591 11.7485c1.4053-1.556 3.8009-1.6737 5.3508-.2629s1.6672 3.8158.2619 5.3718l-2.3279 2.5775c6.229.3408 13.4679 1.9817 20.2533 5.5957 11.1308 5.9283 20.9482 17.128 23.1849 36.1105 1.914 16.2463-4.7139 28.4016-13.4083 36.3733-8.513 7.8056-19.2931 11.8656-26.4676 11.8656h-52.15014c-2.09213 0-3.78814-1.703-3.78814-3.803 0-2.101 1.69601-3.803 3.78814-3.803h52.15014c4.9474 0 13.9716-3.1031 21.3586-9.876 7.2056-6.6068 12.5738-16.4459 10.993-29.8635-1.9305-16.3859-10.1701-25.4694-19.211-30.2847-6.0515-3.223-12.5055-4.5512-17.7752-4.7511l3.4002 3.7652c1.4053 1.556 1.288 3.961-.2619 5.3718s-3.9455 1.2931-5.3508-.2629l-8.5864-9.5077c-1.309-1.4495-1.309-3.6594 0-5.1089z" fill="#fff"/><g fill="#2f8dbd" fill-opacity=".980392"><path d="m105.349 92.3754c1.544-1.4176 3.94-1.3104 5.352.2394l9.471 10.3952c.68.746 1.035 1.734.988 2.744-.047 1.011-.493 1.961-1.239 2.64l-9.471 8.62c-1.55 1.411-3.945 1.293-5.35-.263-1.406-1.556-1.288-3.961.262-5.371l2.196-2h-16.9512c-2.0922 0-3.7882-1.703-3.7882-3.803 0-2.101 1.696-3.803 3.7882-3.803h18.1712l-3.667-4.0256c-1.412-1.5498-1.306-3.9555.238-5.373z"/><path d="m36.2427 24.4331c1.9589-.7375 4.1424.259 4.877 2.2256s-.258 4.1587-2.2169 4.8962c-6.6605 2.5076-14.3782 11.1396-17.73 22.4059-3.2715 10.9961-2.1653 23.8284 7.8219 34.7144 1.4174 1.5449 1.3189 3.9509-.22 5.3738-1.5389 1.423-3.9354 1.3241-5.3527-.2208-12.1103-13.2001-13.4033-28.9542-9.5089-42.0442 3.8141-12.8198 12.8274-23.7735 22.3296-27.3509z"/></g></g></svg>