<svg fill="none" height="177" viewBox="0 0 739 177" width="739" xmlns="http://www.w3.org/2000/svg" xmlns:xlink="http://www.w3.org/1999/xlink"><clipPath id="a"><path d="m16 16h50v46h-50z"/></clipPath><g clip-path="url(#a)" fill-opacity=".980392"><path d="m37.3221 16.5249c.5908-.6541 1.5979-.7036 2.2495-.1105s.7009 1.6042.1101 2.2584l-.9787 1.0836c2.6187.1432 5.6621.8331 8.5147 2.3524 4.6796 2.4924 8.8069 7.2009 9.7471 15.1814.8047 6.8301-1.9816 11.9403-5.6368 15.2917-3.579 3.2815-8.1111 4.9883-11.1274 4.9883h-21.9245c-.8795 0-1.5926-.7158-1.5926-1.5988 0-.8831.7131-1.5989 1.5926-1.5989h21.9245c2.08 0 5.8739-1.3044 8.9795-4.1518 3.0293-2.7776 5.2861-6.914 4.6215-12.555-.8116-6.8888-4.2756-10.7076-8.0765-12.732-2.5441-1.355-5.2574-1.9134-7.4729-1.9974l1.4295 1.5829c.5908.6542.5415 1.6653-.1101 2.2584s-1.6587.5436-2.2495-.1106l-3.6099-3.9971c-.5503-.6094-.5503-1.5385 0-2.1478z" fill="#2f8dbd"/><g fill="#677388"><path d="m58.6614 50.4214c.649-.596 1.6564-.5509 2.2501.1007l3.9814 4.3702c.2859.3138.4355.729.4157 1.1538s-.2074.8241-.5211 1.1097l-3.9815 3.6241c-.6516.5931-1.6587.5436-2.2495-.1105-.5908-.6542-.5415-1.6653.1101-2.2584l.9236-.8408h-7.1267c-.8795 0-1.5926-.7158-1.5926-1.5988s.7131-1.5989 1.5926-1.5989h7.6393l-1.5416-1.6922c-.5937-.6516-.5488-1.6629.1002-2.2589z"/><path d="m29.6082 21.8577c.8236-.31 1.7416.1089 2.0504.9357s-.1085 1.7484-.932 2.0584c-2.8002 1.0542-6.0448 4.6832-7.4539 9.4197-1.3754 4.6229-.9104 10.0178 3.2884 14.5944.5959.6495.5545 1.661-.0925 2.2592s-1.6545.5566-2.2504-.0929c-5.0913-5.5494-5.6348-12.1726-3.9976-17.6758 1.6035-5.3896 5.3928-9.9947 9.3876-11.4987z"/></g></g><path d="m274.786 39c-.4 0-.74-.14-1.02-.42s-.42-.62-.42-1.02v-5.7c0-.44.14-.8.42-1.08s.62-.42 1.02-.42h5.94c.44 0 .8.14 1.08.42s.42.64.42 1.08v5.7c0 .4-.14.74-.42 1.02s-.64.42-1.08.42zm0 21c-.4 0-.74-.14-1.02-.42s-.42-.62-.42-1.02v-5.7c0-.44.14-.8.42-1.08s.62-.42 1.02-.42h5.94c.44 0 .8.14 1.08.42s.42.64.42 1.08v5.7c0 .4-.14.74-.42 1.02s-.64.42-1.08.42z" fill="#227093"/><path d="m249.947 60c-.4 0-.74-.1399-1.02-.4199s-.42-.6201-.42-1.0201v-28.26c0-.44.14-.8.42-1.0799.28-.2801.62-.4201 1.02-.4201h4.86c.4 0 .74.14 1.02.4201.32.2799.48.6399.48 1.0799v2.46c.92-1.28 2.1-2.26 3.54-2.94 1.48-.68 3.18-1.02 5.1-1.02h2.46c.44 0 .78.14 1.02.4201.28.2799.42.6199.42 1.0199v4.32c0 .4-.14.74-.42 1.02-.24.28-.58.42-1.02.42h-4.68c-1.92 0-3.42.54-4.5 1.62-1.04 1.08-1.56 2.56-1.56 4.44v16.5c0 .4-.14.7401-.42 1.0201s-.64.4199-1.08.4199z" fill="#227093"/><path d="m227.318 60.6c-4.44 0-7.96-1.28-10.56-3.84s-4-6.2-4.2-10.92c-.04-.4-.06-.9-.06-1.5 0-.64.02-1.14.06-1.5.16-3 .84-5.6 2.04-7.8 1.24-2.2 2.94-3.88 5.1-5.04 2.16-1.2 4.7-1.8 7.62-1.8 3.24 0 5.96.68 8.16 2.04 2.2 1.32 3.86 3.18 4.98 5.58 1.12 2.36 1.68 5.1 1.68 8.22v1.26c0 .4-.14.74-.42 1.02s-.64.42-1.08.42h-19.92v.18.3c.04 1.4.3 2.7.78 3.9.52 1.16 1.26 2.1 2.22 2.82 1 .72 2.18 1.08 3.54 1.08 1.12 0 2.06-.16 2.82-.48.76-.36 1.38-.76 1.86-1.2s.82-.8 1.02-1.08c.36-.48.64-.76.84-.84.24-.12.58-.18 1.02-.18h5.16c.4 0 .72.12.96.36.28.24.4.54.36.9-.04.64-.38 1.42-1.02 2.34-.6.92-1.48 1.82-2.64 2.7s-2.62 1.62-4.38 2.22c-1.72.56-3.7.84-5.94.84zm-6.6-18.9h13.26v-.18c0-1.56-.26-2.92-.78-4.08s-1.28-2.08-2.28-2.76-2.2-1.02-3.6-1.02-2.6.34-3.6 1.02-1.76 1.6-2.28 2.76c-.48 1.16-.72 2.52-.72 4.08z" fill="#227093"/><path d="m177.643 60c-.4 0-.74-.14-1.02-.42s-.42-.62-.42-1.02v-39.72c0-.4.14-.74.42-1.02s.62-.42 1.02-.42h5.34c.44 0 .78.14 1.02.42.28.28.42.62.42 1.02v13.68c1.08-1.28 2.4-2.32 3.96-3.12s3.48-1.2 5.76-1.2c2.44 0 4.56.56 6.36 1.68 1.84 1.08 3.26 2.62 4.26 4.62s1.5 4.4 1.5 7.2v16.86c0 .4-.14.74-.42 1.02s-.62.42-1.02.42h-5.4c-.4 0-.74-.14-1.02-.42s-.42-.62-.42-1.02v-16.5c0-2.32-.58-4.14-1.74-5.46-1.12-1.32-2.76-1.98-4.92-1.98-2.08 0-3.76.66-5.04 1.98-1.24 1.32-1.86 3.14-1.86 5.46v16.5c0 .4-.14.74-.42 1.02-.24.28-.58.42-1.02.42z" fill="#227093"/><path d="m164.521 60c-2.4 0-4.42-.42-6.06-1.26s-2.86-2.08-3.66-3.72c-.8-1.68-1.2-3.76-1.2-6.24v-13.62h-4.74c-.4 0-.74-.14-1.02-.42s-.42-.62-.42-1.02v-3.48c0-.4.14-.74.42-1.02s.62-.42 1.02-.42h4.74v-9.96c0-.4.12-.74.36-1.02.28-.28.64-.42 1.08-.42h4.86c.4 0 .74.14 1.02.42s.42.62.42 1.02v9.96h7.5c.4 0 .74.14 1.02.42s.42.62.42 1.02v3.48c0 .4-.14.74-.42 1.02s-.62.42-1.02.42h-7.5v13.02c0 1.64.28 2.92.84 3.84.6.92 1.62 1.38 3.06 1.38h4.14c.4 0 .74.14 1.02.42s.42.62.42 1.02v3.72c0 .4-.14.74-.42 1.02s-.62.42-1.02.42z" fill="#227093"/><path d="m130.424 60.6c-2.4 0-4.46-.28-6.18-.84-1.68-.56-3.06-1.26-4.14-2.1s-1.88-1.68-2.4-2.52-.8-1.54-.84-2.1c-.04-.44.08-.78.36-1.02.32-.28.66-.42 1.02-.42h4.74c.16 0 .3.02.42.06s.28.16.48.36c.52.44 1.06.9 1.62 1.38.6.48 1.3.9 2.1 1.26.8.32 1.8.48 3 .48 1.56 0 2.86-.3 3.9-.9 1.08-.64 1.62-1.54 1.62-2.7 0-.84-.24-1.52-.72-2.04-.44-.52-1.28-.98-2.52-1.38-1.24-.44-3-.9-5.28-1.38-2.24-.52-4.1-1.18-5.58-1.98s-2.58-1.8-3.3-3-1.08-2.6-1.08-4.2c0-1.56.46-3.04 1.38-4.44.96-1.44 2.36-2.62 4.2-3.54 1.88-.92 4.2-1.38 6.96-1.38 2.16 0 4.04.28 5.64.84 1.6.52 2.92 1.18 3.96 1.98 1.08.8 1.9 1.62 2.46 2.46.56.8.86 1.5.9 2.1.04.44-.08.8-.36 1.08-.28.24-.6.36-.96.36h-4.44c-.2 0-.38-.04-.54-.12s-.32-.18-.48-.3c-.44-.4-.92-.82-1.44-1.26s-1.16-.82-1.92-1.14c-.72-.36-1.68-.54-2.88-.54-1.52 0-2.68.34-3.48 1.02-.8.64-1.2 1.46-1.2 2.46 0 .68.18 1.28.54 1.8.4.48 1.18.94 2.34 1.38s2.92.9 5.28 1.38c2.68.48 4.8 1.2 6.36 2.16 1.6.92 2.72 2 3.36 3.24.68 1.2 1.02 2.54 1.02 4.02 0 1.8-.54 3.42-1.62 4.86-1.04 1.44-2.6 2.58-4.68 3.42-2.04.8-4.58 1.2-7.62 1.2z" fill="#227093"/><path d="m83.44 60c-.4 0-.74-.14-1.02-.42s-.42-.62-.42-1.02v-39.06c0-.44.14-.8.42-1.08s.62-.42 1.02-.42h26.4c.44 0 .8.14 1.08.42s.42.64.42 1.08v3.96c0 .4-.14.74-.42 1.02s-.64.42-1.08.42h-19.74v10.62h18.42c.44 0 .8.14 1.08.42.28.24.42.58.42 1.02v3.72c0 .44-.14.8-.42 1.08-.28.24-.64.36-1.08.36h-18.42v10.98h20.22c.44 0 .8.14 1.08.42s.42.64.42 1.08v3.96c0 .4-.14.74-.42 1.02s-.64.42-1.08.42z" fill="#227093"/><g fill="#3e4a59"><path d="m674.899 160.104c-.528 0-.997-.176-1.408-.528-.352-.352-.528-.792-.528-1.32 0-.117 0-.264 0-.44.059-.176.118-.381.176-.616l7.04-16.632-16.984-40.04c-.117-.352-.176-.6453-.176-.88.118-.528.352-.9973.704-1.408.411-.4106.88-.616 1.408-.616h12.408c.88 0 1.496.2347 1.848.704.411.4107.704.8214.88 1.232l8.624 22.88 8.888-22.88c.235-.4693.558-.9093.968-1.32.411-.4106 1.027-.616 1.848-.616h12.32c.47 0 .91.2054 1.32.616.411.352.616.7627.616 1.232 0 .352-.058.704-.176 1.056l-24.816 57.64c-.234.469-.586.909-1.056 1.32-.41.411-1.026.616-1.848.616z"/><path d="m625.59 143.384c-.645 0-1.202-.205-1.672-.616-.41-.469-.616-1.027-.616-1.672v-41.184c0-.6453.206-1.1733.616-1.584.47-.4693 1.027-.704 1.672-.704h12.76c.646 0 1.174.2347 1.584.704.47.4107.704.9387.704 1.584v3.256c1.76-1.701 3.755-3.051 5.984-4.048 2.288-.9973 4.782-1.496 7.48-1.496h3.96c.646 0 1.203.2347 1.672.704.47.4107.704.9387.704 1.584v11.352c0 .645-.234 1.203-.704 1.672-.469.469-1.026.704-1.672.704h-9.856c-2.112 0-3.725.557-4.84 1.672-1.114 1.056-1.672 2.64-1.672 4.752v21.032c0 .645-.234 1.203-.704 1.672-.41.411-.938.616-1.584.616z"/><path d="m591.185 144.264c-5.163 0-9.534-.763-13.112-2.288-3.52-1.525-6.219-3.755-8.096-6.688-1.878-2.992-2.934-6.571-3.168-10.736-.059-1.232-.088-2.581-.088-4.048s.029-2.816.088-4.048c.234-4.224 1.349-7.803 3.344-10.736 1.994-2.933 4.752-5.163 8.272-6.688 3.578-1.5253 7.832-2.288 12.76-2.288s9.152.7627 12.672 2.288c3.578 1.525 6.365 3.755 8.36 6.688 1.994 2.933 3.109 6.512 3.344 10.736.117 1.232.176 2.581.176 4.048s-.059 2.816-.176 4.048c-.235 4.165-1.291 7.744-3.168 10.736-1.878 2.933-4.606 5.163-8.184 6.688-3.52 1.525-7.862 2.288-13.024 2.288zm0-12.408c2.17 0 3.666-.645 4.488-1.936.821-1.291 1.29-3.227 1.408-5.808.058-.88.088-2.083.088-3.608s-.03-2.728-.088-3.608c-.118-2.523-.587-4.429-1.408-5.72-.822-1.349-2.318-2.024-4.488-2.024-2.112 0-3.579.675-4.4 2.024-.822 1.291-1.32 3.197-1.496 5.72-.059.88-.088 2.083-.088 3.608s.029 2.728.088 3.608c.176 2.581.674 4.517 1.496 5.808.821 1.291 2.288 1.936 4.4 1.936z"/><path d="m550.089 143.384c-3.99 0-7.51-.587-10.56-1.76-2.992-1.173-5.339-3.08-7.04-5.72-1.643-2.699-2.464-6.248-2.464-10.648v-14.168h-6.952c-.646 0-1.203-.205-1.672-.616-.411-.469-.616-1.027-.616-1.672v-8.8879c0-.6454.205-1.1734.616-1.584.469-.4694 1.026-.704 1.672-.704h6.952v-14.432c0-.6454.205-1.1734.616-1.584.469-.4694 1.026-.704 1.672-.704h12.76c.645 0 1.173.2346 1.584.704.469.4106.704.9386.704 1.584v14.432h11.088c.645 0 1.173.2346 1.584.704.469.4106.704.9386.704 1.584v8.8879c0 .645-.235 1.203-.704 1.672-.411.411-.939.616-1.584.616h-11.088v12.672c0 1.701.352 3.051 1.056 4.048.704.939 1.818 1.408 3.344 1.408h7.392c.645 0 1.173.235 1.584.704.469.411.704.939.704 1.584v9.592c0 .645-.235 1.203-.704 1.672-.411.411-.939.616-1.584.616z"/><path d="m494.267 144.264c-3.989 0-7.392-.411-10.208-1.232-2.816-.88-5.133-1.965-6.952-3.256-1.76-1.291-3.051-2.611-3.872-3.96-.821-1.408-1.261-2.64-1.32-3.696-.059-.645.117-1.173.528-1.584.469-.469.968-.704 1.496-.704h12.76c.059 0 .147.029.264.088.117 0 .235.059.352.176.763.235 1.467.616 2.112 1.144.704.528 1.467.997 2.288 1.408.88.411 1.907.616 3.08.616.997 0 1.877-.205 2.64-.616.821-.469 1.232-1.115 1.232-1.936 0-.704-.235-1.32-.704-1.848-.411-.528-1.32-1.027-2.728-1.496-1.408-.528-3.667-1.085-6.776-1.672-2.875-.587-5.515-1.437-7.92-2.552-2.347-1.173-4.224-2.728-5.632-4.664-1.349-1.936-2.024-4.312-2.024-7.128 0-2.405.792-4.723 2.376-6.952s3.931-4.048 7.04-5.456c3.168-1.4667 7.04-2.2 11.616-2.2 3.461 0 6.512.4107 9.152 1.232 2.699.8213 4.957 1.848 6.776 3.08 1.877 1.232 3.285 2.552 4.224 3.96.997 1.408 1.525 2.669 1.584 3.784.059.645-.117 1.203-.528 1.672-.411.411-.88.616-1.408.616h-11.528c-.176 0-.381 0-.616 0-.176-.059-.323-.147-.44-.264-.821-.176-1.584-.499-2.288-.968-.645-.528-1.349-.997-2.112-1.408-.763-.469-1.731-.704-2.904-.704-.997 0-1.819.235-2.464.704-.587.469-.88 1.085-.88 1.848 0 .645.205 1.232.616 1.76s1.349 1.027 2.816 1.496 3.784.968 6.952 1.496c4.107.645 7.392 1.731 9.856 3.256 2.464 1.467 4.224 3.197 5.28 5.192s1.584 3.989 1.584 5.984c0 2.992-.909 5.603-2.728 7.832-1.76 2.229-4.4 3.96-7.92 5.192-3.461 1.173-7.685 1.76-12.672 1.76z"/><path d="m449.676 143.384c-.645 0-1.202-.205-1.672-.616-.41-.469-.616-1.027-.616-1.672v-41.184c0-.6453.206-1.1733.616-1.584.47-.4693 1.027-.704 1.672-.704h13.024c.646 0 1.203.2347 1.672.704.47.4107.704.9387.704 1.584v41.184c0 .645-.234 1.203-.704 1.672-.469.411-1.026.616-1.672.616zm.176-51.48c-.645 0-1.202-.2053-1.672-.616-.41-.4693-.616-1.0267-.616-1.672v-9.24c0-.6453.206-1.2027.616-1.672.47-.4693 1.027-.704 1.672-.704h12.672c.646 0 1.203.2347 1.672.704.47.4693.704 1.0267.704 1.672v9.24c0 .6453-.234 1.2027-.704 1.672-.469.4107-1.026.616-1.672.616z"/><path d="m383.783 143.384c-.587 0-1.115-.205-1.584-.616s-.704-.968-.704-1.672v-57.0239c0-.6454.235-1.1734.704-1.584.469-.4694.997-.704 1.584-.704h14.344c.645 0 1.173.2346 1.584.704.469.4106.704.9386.704 1.584v19.8879h17.952v-19.8879c0-.6454.205-1.1734.616-1.584.469-.4694 1.027-.704 1.672-.704h14.344c.645 0 1.173.2346 1.584.704.469.4106.704.9386.704 1.584v57.0239c0 .645-.235 1.203-.704 1.672-.411.411-.939.616-1.584.616h-14.344c-.645 0-1.203-.205-1.672-.616-.411-.469-.616-1.027-.616-1.672v-20.416h-17.952v20.416c0 .645-.235 1.203-.704 1.672-.411.411-.939.616-1.584.616z"/><path d="m307.45 143.384c-.646 0-1.203-.205-1.672-.616-.411-.469-.616-1.027-.616-1.672v-41.184c0-.6453.205-1.1733.616-1.584.469-.4693 1.026-.704 1.672-.704h12.76c.645 0 1.173.2347 1.584.704.469.4107.704.9387.704 1.584v3.168c1.525-1.76 3.549-3.256 6.072-4.488 2.522-1.232 5.397-1.848 8.624-1.848 3.168 0 6.042.7333 8.624 2.2 2.581 1.467 4.664 3.667 6.248 6.6s2.376 6.629 2.376 11.088v24.464c0 .645-.235 1.203-.704 1.672-.47.411-1.027.616-1.672.616h-13.904c-.646 0-1.203-.205-1.672-.616-.411-.469-.616-1.027-.616-1.672v-23.848c0-2.171-.528-3.843-1.584-5.016s-2.552-1.76-4.488-1.76-3.462.587-4.576 1.76c-1.115 1.173-1.672 2.845-1.672 5.016v23.848c0 .645-.235 1.203-.704 1.672-.411.411-.939.616-1.584.616z"/><path d="m273.044 144.264c-5.163 0-9.533-.763-13.112-2.288-3.52-1.525-6.219-3.755-8.096-6.688-1.877-2.992-2.933-6.571-3.168-10.736-.059-1.232-.088-2.581-.088-4.048s.029-2.816.088-4.048c.235-4.224 1.349-7.803 3.344-10.736s4.752-5.163 8.272-6.688c3.579-1.5253 7.832-2.288 12.76-2.288s9.152.7627 12.672 2.288c3.579 1.525 6.365 3.755 8.36 6.688s3.109 6.512 3.344 10.736c.117 1.232.176 2.581.176 4.048s-.059 2.816-.176 4.048c-.235 4.165-1.291 7.744-3.168 10.736-1.877 2.933-4.605 5.163-8.184 6.688-3.52 1.525-7.861 2.288-13.024 2.288zm0-12.408c2.171 0 3.667-.645 4.488-1.936s1.291-3.227 1.408-5.808c.059-.88.088-2.083.088-3.608s-.029-2.728-.088-3.608c-.117-2.523-.587-4.429-1.408-5.72-.821-1.349-2.317-2.024-4.488-2.024-2.112 0-3.579.675-4.4 2.024-.821 1.291-1.32 3.197-1.496 5.72-.059.88-.088 2.083-.088 3.608s.029 2.728.088 3.608c.176 2.581.675 4.517 1.496 5.808s2.288 1.936 4.4 1.936z"/><path d="m225.637 143.384c-.645 0-1.202-.205-1.672-.616-.41-.469-.616-1.027-.616-1.672v-41.184c0-.6453.206-1.1733.616-1.584.47-.4693 1.027-.704 1.672-.704h13.024c.646 0 1.203.2347 1.672.704.47.4107.704.9387.704 1.584v41.184c0 .645-.234 1.203-.704 1.672-.469.411-1.026.616-1.672.616zm.176-51.48c-.645 0-1.202-.2053-1.672-.616-.41-.4693-.616-1.0267-.616-1.672v-9.24c0-.6453.206-1.2027.616-1.672.47-.4693 1.027-.704 1.672-.704h12.672c.646 0 1.203.2347 1.672.704.47.4693.704 1.0267.704 1.672v9.24c0 .6453-.234 1.2027-.704 1.672-.469.4107-1.026.616-1.672.616z"/><path d="m193.142 144.264c-3.989 0-7.392-.411-10.208-1.232-2.816-.88-5.133-1.965-6.952-3.256-1.76-1.291-3.051-2.611-3.872-3.96-.821-1.408-1.261-2.64-1.32-3.696-.059-.645.117-1.173.528-1.584.469-.469.968-.704 1.496-.704h12.76c.059 0 .147.029.264.088.117 0 .235.059.352.176.763.235 1.467.616 2.112 1.144.704.528 1.467.997 2.288 1.408.88.411 1.907.616 3.08.616.997 0 1.877-.205 2.64-.616.821-.469 1.232-1.115 1.232-1.936 0-.704-.235-1.32-.704-1.848-.411-.528-1.32-1.027-2.728-1.496-1.408-.528-3.667-1.085-6.776-1.672-2.875-.587-5.515-1.437-7.92-2.552-2.347-1.173-4.224-2.728-5.632-4.664-1.349-1.936-2.024-4.312-2.024-7.128 0-2.405.792-4.723 2.376-6.952s3.931-4.048 7.04-5.456c3.168-1.4667 7.04-2.2 11.616-2.2 3.461 0 6.512.4107 9.152 1.232 2.699.8213 4.957 1.848 6.776 3.08 1.877 1.232 3.285 2.552 4.224 3.96.997 1.408 1.525 2.669 1.584 3.784.059.645-.117 1.203-.528 1.672-.411.411-.88.616-1.408.616h-11.528c-.176 0-.381 0-.616 0-.176-.059-.323-.147-.44-.264-.821-.176-1.584-.499-2.288-.968-.645-.528-1.349-.997-2.112-1.408-.763-.469-1.731-.704-2.904-.704-.997 0-1.819.235-2.464.704-.587.469-.88 1.085-.88 1.848 0 .645.205 1.232.616 1.76s1.349 1.027 2.816 1.496 3.784.968 6.952 1.496c4.107.645 7.392 1.731 9.856 3.256 2.464 1.467 4.224 3.197 5.28 5.192s1.584 3.989 1.584 5.984c0 2.992-.909 5.603-2.728 7.832-1.76 2.229-4.4 3.96-7.92 5.192-3.461 1.173-7.685 1.76-12.672 1.76z"/><path d="m132.481 143.384c-.645 0-1.203-.205-1.672-.616-.411-.469-.616-1.027-.616-1.672v-41.184c0-.6453.205-1.1733.616-1.584.469-.4693 1.027-.704 1.672-.704h12.76c.645 0 1.173.2347 1.584.704.469.4107.704.9387.704 1.584v3.256c1.76-1.701 3.755-3.051 5.984-4.048 2.288-.9973 4.781-1.496 7.48-1.496h3.96c.645 0 1.203.2347 1.672.704.469.4107.704.9387.704 1.584v11.352c0 .645-.235 1.203-.704 1.672s-1.027.704-1.672.704h-9.856c-2.112 0-3.725.557-4.84 1.672-1.115 1.056-1.672 2.64-1.672 4.752v21.032c0 .645-.235 1.203-.704 1.672-.411.411-.939.616-1.584.616z"/><path d="m99.0081 144.264c-7.3334 0-13.1707-1.877-17.512-5.632-4.2827-3.813-6.4827-9.621-6.6-17.424 0-.235 0-.528 0-.88 0-.411 0-.704 0-.88.176-4.869 1.232-8.976 3.168-12.32 1.9946-3.403 4.752-5.984 8.272-7.744 3.5786-1.76 7.7733-2.64 12.584-2.64 5.3969 0 9.8559 1.0853 13.3759 3.256 3.579 2.112 6.248 4.957 8.008 8.536 1.76 3.52 2.64 7.48 2.64 11.88v2.464c0 .587-.235 1.115-.704 1.584s-1.027.704-1.672.704h-27.1039v.176.352c0 1.408.176 2.669.528 3.784.4106 1.056 1.0266 1.907 1.848 2.552.8213.587 1.8186.88 2.992.88.7626 0 1.4079-.117 1.9359-.352s.968-.528 1.32-.88c.411-.411.763-.792 1.056-1.144.528-.528.968-.851 1.32-.968.352-.176.88-.264 1.584-.264h13.816c.528 0 .968.176 1.32.528.411.352.587.792.528 1.32-.059 1.056-.557 2.347-1.496 3.872-.939 1.467-2.347 2.904-4.224 4.312-1.819 1.408-4.165 2.581-7.04 3.52s-6.189 1.408-9.9439 1.408zm-5.544-28.952h10.9119v-.176c0-1.584-.205-2.933-.616-4.048s-1.027-1.936-1.848-2.464c-.821-.587-1.819-.88-2.9919-.88-1.1734 0-2.1707.293-2.992.88-.8214.528-1.4374 1.349-1.848 2.464-.4107 1.115-.616 2.464-.616 4.048z"/><path d="m37.12 143.384c-1.056 0-1.9067-.293-2.552-.88-.5867-.587-.968-1.203-1.144-1.848l-17.336-56.3199c-.0587-.2347-.088-.44-.088-.616 0-.528.176-.968.528-1.32.4107-.4107.88-.616 1.408-.616h13.64c1.056 0 1.8773.2933 2.464.88.5867.5866.968 1.1733 1.144 1.76l10.384 36.6959 10.384-36.6959c.176-.5867.5573-1.1734 1.144-1.76.5867-.5867 1.408-.88 2.464-.88h13.64c.528 0 .968.2053 1.32.616.352.352.528.792.528 1.32 0 .176-.0293.3813-.088.616l-17.248 56.3199c-.176.645-.5867 1.261-1.232 1.848-.5867.587-1.4373.88-2.552.88z"/></g></svg>