<svg width="305" height="83" viewBox="0 0 305 83" fill="none" xmlns="http://www.w3.org/2000/svg">
<path d="M88.4313 20.984C88.1273 20.792 87.7833 20.64 87.3993 20.528C87.0313 20.416 86.6473 20.312 86.2473 20.216C85.8633 20.12 85.4873 20.016 85.1193 19.904C84.7513 19.776 84.4153 19.6 84.1113 19.376C83.4553 18.88 83.0713 18.272 82.9593 17.552C82.8633 16.816 83.0233 16.08 83.4393 15.344C83.6633 14.96 83.9593 14.648 84.3273 14.408C84.6953 14.152 85.0953 13.96 85.5273 13.832C85.9753 13.688 86.4313 13.608 86.8953 13.592C87.3593 13.576 87.7993 13.6 88.2153 13.664C88.4873 13.712 88.7753 13.784 89.0793 13.88C89.3833 13.96 89.6633 14.072 89.9193 14.216C90.1913 14.36 90.4313 14.544 90.6393 14.768C90.8633 14.976 91.0233 15.24 91.1193 15.56C91.1833 15.768 91.1913 15.968 91.1433 16.16C91.1113 16.352 91.0313 16.512 90.9033 16.64C90.7913 16.768 90.6393 16.864 90.4473 16.928C90.2713 16.992 90.0793 17.008 89.8713 16.976C89.6313 16.928 89.4073 16.856 89.1993 16.76C88.9913 16.664 88.7833 16.56 88.5753 16.448C88.3673 16.336 88.1513 16.24 87.9273 16.16C87.7193 16.08 87.4953 16.04 87.2553 16.04C86.8873 16.024 86.5833 16.088 86.3433 16.232C86.1033 16.376 85.9353 16.552 85.8393 16.76C85.7593 16.968 85.7673 17.192 85.8633 17.432C85.9753 17.672 86.1993 17.88 86.5353 18.056C86.8393 18.216 87.1753 18.344 87.5433 18.44C87.9113 18.536 88.2713 18.632 88.6233 18.728C88.9913 18.824 89.3433 18.936 89.6793 19.064C90.0313 19.192 90.3433 19.368 90.6153 19.592C91.1433 20.024 91.4633 20.528 91.5753 21.104C91.7033 21.68 91.6713 22.248 91.4793 22.808C91.2873 23.368 90.9513 23.864 90.4713 24.296C90.0073 24.728 89.4553 25.016 88.8153 25.16C88.3513 25.256 87.8473 25.304 87.3033 25.304C86.7753 25.304 86.2473 25.248 85.7193 25.136C85.2073 25.024 84.7113 24.848 84.2313 24.608C83.7673 24.368 83.3753 24.064 83.0553 23.696C82.8313 23.44 82.7113 23.152 82.6953 22.832C82.6953 22.496 82.7593 22.208 82.8873 21.968C83.0313 21.712 83.2313 21.536 83.4873 21.44C83.7433 21.344 84.0313 21.4 84.3513 21.608C84.6073 21.784 84.9113 21.96 85.2633 22.136C85.6153 22.296 85.9673 22.424 86.3193 22.52C86.6713 22.616 87.0073 22.664 87.3273 22.664C87.6633 22.664 87.9513 22.592 88.1913 22.448C88.5433 22.224 88.7273 21.968 88.7433 21.68C88.7593 21.376 88.6553 21.144 88.4313 20.984Z" fill="#E25555"/>
<path d="M81.452 8.33601C81.308 8.89601 81.124 9.50401 80.9 10.16C80.676 10.816 80.428 11.472 80.156 12.128C79.9 12.768 79.644 13.376 79.388 13.952H77.828C77.94 13.504 78.052 13.024 78.164 12.512C78.292 12 78.404 11.488 78.5 10.976C78.612 10.448 78.708 9.93601 78.788 9.44001C78.884 8.94401 78.964 8.48801 79.028 8.07201H81.284L81.452 8.33601Z" fill="#E25555"/>
<path d="M66.8053 16.712C66.8053 16.52 66.8053 16.304 66.8053 16.064C66.8053 15.808 66.8133 15.552 66.8293 15.296C66.8453 15.024 66.8693 14.768 66.9013 14.528C66.9493 14.272 67.0133 14.048 67.0933 13.856C67.2213 13.568 67.4213 13.376 67.6933 13.28C67.9653 13.168 68.2613 13.12 68.5813 13.136C68.9173 13.136 69.1813 13.192 69.3733 13.304C69.5653 13.416 69.7093 13.568 69.8053 13.76C69.9013 13.936 69.9573 14.144 69.9733 14.384C70.0053 14.608 70.0213 14.848 70.0213 15.104C70.1653 14.848 70.3573 14.64 70.5973 14.48C70.8533 14.32 71.1093 14.192 71.3653 14.096C71.6213 14 71.8533 13.936 72.0613 13.904C72.2693 13.856 72.3893 13.832 72.4213 13.832C72.8213 13.8 73.1813 13.792 73.5013 13.808C73.8373 13.824 74.2053 13.896 74.6053 14.024C74.8613 14.12 75.1253 14.256 75.3973 14.432C75.6693 14.592 75.9093 14.784 76.1173 15.008C76.3253 15.232 76.4613 15.48 76.5253 15.752C76.6053 16.008 76.5733 16.28 76.4293 16.568C76.2053 16.968 75.9573 17.168 75.6853 17.168C75.4133 17.152 75.1173 17.104 74.7973 17.024C74.6213 16.992 74.4133 16.92 74.1733 16.808C73.9333 16.696 73.7253 16.624 73.5493 16.592C73.0053 16.512 72.5253 16.552 72.1093 16.712C71.6933 16.872 71.3333 17.064 71.0293 17.288C70.6773 17.56 70.3733 17.872 70.1173 18.224V21.68C70.1173 22.112 70.1093 22.56 70.0933 23.024C70.0933 23.488 70.0293 23.912 69.9013 24.296C69.7893 24.664 69.5893 24.968 69.3013 25.208C69.0293 25.432 68.6293 25.528 68.1013 25.496C67.8133 25.48 67.5573 25.344 67.3333 25.088C67.1093 24.816 66.9733 24.552 66.9253 24.296C66.8933 24.056 66.8693 23.768 66.8533 23.432C66.8373 23.096 66.8213 22.744 66.8053 22.376C66.8053 22.008 66.8053 21.64 66.8053 21.272C66.8053 20.888 66.8053 20.536 66.8053 20.216V16.712Z" fill="#E25555"/>
<path d="M62.9212 21.92C63.1132 21.872 63.3052 21.84 63.4972 21.824C63.7052 21.808 63.8892 21.832 64.0492 21.896C64.2252 21.96 64.3692 22.072 64.4812 22.232C64.5932 22.376 64.6492 22.584 64.6492 22.856C64.6492 23.048 64.6012 23.232 64.5052 23.408C64.4092 23.584 64.2892 23.744 64.1452 23.888C64.0012 24.032 63.8412 24.16 63.6652 24.272C63.4892 24.368 63.3212 24.448 63.1612 24.512C62.6972 24.72 62.1612 24.88 61.5532 24.992C60.9612 25.104 60.3452 25.144 59.7052 25.112C58.8412 25.08 58.0092 24.912 57.2092 24.608C56.4252 24.288 55.8092 23.768 55.3612 23.048C54.9452 22.344 54.6972 21.56 54.6172 20.696C54.5372 19.832 54.5772 19.016 54.7372 18.248C54.9132 17.32 55.2092 16.568 55.6252 15.992C56.0572 15.4 56.5692 14.928 57.1612 14.576C57.8812 14.16 58.6892 13.944 59.5852 13.928C60.4812 13.912 61.3372 14.088 62.1532 14.456C62.6972 14.696 63.1852 15.024 63.6172 15.44C64.0492 15.84 64.3772 16.328 64.6012 16.904C64.6652 17.048 64.7132 17.224 64.7452 17.432C64.7932 17.64 64.8252 17.864 64.8412 18.104C64.8572 18.328 64.8572 18.552 64.8412 18.776C64.8252 19 64.7852 19.2 64.7212 19.376C64.6252 19.664 64.5052 19.888 64.3612 20.048C64.2172 20.208 64.0332 20.328 63.8092 20.408C63.5852 20.488 63.3132 20.544 62.9932 20.576C62.6892 20.592 62.3212 20.608 61.8892 20.624C61.5052 20.64 61.1452 20.648 60.8092 20.648C60.4732 20.648 60.1292 20.648 59.7772 20.648C59.4252 20.632 59.0572 20.624 58.6732 20.624C58.3052 20.608 57.8892 20.592 57.4252 20.576C57.3772 20.896 57.4172 21.176 57.5452 21.416C57.6892 21.64 57.8812 21.832 58.1212 21.992C58.3612 22.136 58.6332 22.248 58.9372 22.328C59.2412 22.408 59.5372 22.456 59.8252 22.472C60.3692 22.504 60.8892 22.464 61.3852 22.352C61.8812 22.224 62.3932 22.08 62.9212 21.92ZM61.8892 17.264C61.5852 16.912 61.2652 16.656 60.9292 16.496C60.6732 16.384 60.4012 16.336 60.1132 16.352C59.8412 16.352 59.5772 16.392 59.3212 16.472C58.8572 16.584 58.4652 16.824 58.1452 17.192C58.1132 17.224 58.0572 17.304 57.9772 17.432C57.8972 17.544 57.8172 17.664 57.7372 17.792C57.6732 17.92 57.6252 18.04 57.5932 18.152C57.5612 18.264 57.5772 18.32 57.6412 18.32H62.3452C62.3292 18.096 62.2892 17.912 62.2252 17.768C62.1612 17.608 62.0492 17.44 61.8892 17.264Z" fill="#E25555"/>
<path d="M52.6803 20.48C52.6963 20.8 52.7043 21.136 52.7043 21.488C52.7043 21.824 52.6963 22.136 52.6803 22.424C52.6643 22.856 52.6403 23.256 52.6083 23.624C52.5763 23.976 52.5123 24.28 52.4163 24.536C52.3203 24.776 52.1683 24.96 51.9603 25.088C51.7683 25.2 51.4963 25.232 51.1443 25.184C50.7763 25.136 50.5123 24.96 50.3523 24.656C50.1923 24.352 50.0803 24.008 50.0163 23.624C49.9683 23.224 49.9523 22.824 49.9683 22.424C49.9843 22.024 49.9843 21.712 49.9683 21.488C49.9523 21.136 49.9363 20.736 49.9203 20.288C49.9203 19.824 49.8723 19.392 49.7763 18.992C49.6963 18.576 49.5523 18.224 49.3443 17.936C49.1363 17.648 48.8243 17.496 48.4083 17.48C47.8803 17.448 47.4723 17.488 47.1843 17.6C46.9123 17.712 46.7123 17.88 46.5843 18.104C46.4563 18.312 46.3763 18.568 46.3443 18.872C46.3283 19.176 46.2963 19.504 46.2483 19.856L46.2243 20.792V22.544C46.2243 22.832 46.2163 23.136 46.2003 23.456C46.2003 23.76 46.1523 24.04 46.0563 24.296C45.9603 24.552 45.8083 24.768 45.6003 24.944C45.4083 25.12 45.1203 25.208 44.7363 25.208C44.2563 25.208 43.8963 25.056 43.6563 24.752C43.4323 24.432 43.3203 24.04 43.3203 23.576V9.776C43.3203 9.68 43.3203 9.592 43.3203 9.512C43.3363 9.416 43.3523 9.32 43.3683 9.224C43.4003 9.128 43.4243 9.04 43.4403 8.96C43.4563 8.864 43.4803 8.776 43.5123 8.696C43.5603 8.536 43.6403 8.416 43.7523 8.336C43.8323 8.256 43.9123 8.192 43.9923 8.144C44.0723 8.096 44.1603 8.064 44.2563 8.048C44.3363 8.032 44.4243 8.024 44.5203 8.024C44.6163 8.008 44.7123 8 44.8083 8C45.0483 8 45.2803 8.072 45.5043 8.216C45.6003 8.28 45.6883 8.352 45.7683 8.432C45.8483 8.496 45.9123 8.592 45.9603 8.72C46.0883 9.024 46.1523 9.312 46.1523 9.584C46.1683 9.664 46.1763 9.784 46.1763 9.944C46.1923 10.088 46.2003 10.24 46.2003 10.4C46.2003 10.56 46.2003 10.72 46.2003 10.88C46.2163 11.024 46.2243 11.136 46.2243 11.216V11.336C46.2403 11.848 46.2483 12.368 46.2483 12.896C46.2483 13.424 46.2483 13.96 46.2483 14.504V14.912C46.9203 14.688 47.6243 14.584 48.3603 14.6C49.0963 14.6 49.7523 14.744 50.3283 15.032C50.9203 15.336 51.3683 15.68 51.6723 16.064C51.9923 16.448 52.2243 16.872 52.3683 17.336C52.5123 17.8 52.5923 18.296 52.6083 18.824C52.6403 19.352 52.6643 19.904 52.6803 20.48Z" fill="#E25555"/>
<path d="M41.2871 14.624C41.4151 14.928 41.4231 15.264 41.3111 15.632C41.2151 16 41.0311 16.24 40.7591 16.352C40.6151 16.416 40.4231 16.472 40.1831 16.52C39.9431 16.552 39.6791 16.584 39.3911 16.616C39.1191 16.648 38.8471 16.672 38.5751 16.688C38.3031 16.704 38.0711 16.712 37.8791 16.712C37.8951 17.192 37.9111 17.688 37.9271 18.2C37.9431 18.696 37.9591 19.184 37.9751 19.664C37.9911 20.144 37.9991 20.608 37.9991 21.056C37.9991 21.488 37.9911 21.88 37.9751 22.232C37.9751 22.472 37.9751 22.752 37.9751 23.072C37.9751 23.376 37.9511 23.672 37.9031 23.96C37.8711 24.248 37.8151 24.504 37.7351 24.728C37.6551 24.936 37.5351 25.072 37.3751 25.136C36.8791 25.344 36.4231 25.4 36.0071 25.304C35.6071 25.224 35.3191 25.056 35.1431 24.8C35.0151 24.592 34.9191 24.352 34.8551 24.08C34.7911 23.792 34.7431 23.504 34.7111 23.216C34.6951 22.912 34.6871 22.624 34.6871 22.352C34.7031 22.064 34.7111 21.816 34.7111 21.608C34.7271 20.936 34.7351 20.176 34.7351 19.328C34.7511 18.464 34.7591 17.6 34.7591 16.736H34.3991C34.2071 16.736 33.9591 16.736 33.6551 16.736C33.3671 16.72 33.0711 16.696 32.7671 16.664C32.4791 16.616 32.2071 16.56 31.9511 16.496C31.6951 16.416 31.5111 16.304 31.3991 16.16C31.2231 15.952 31.1111 15.728 31.0631 15.488C31.0311 15.248 31.0471 15.024 31.1111 14.816C31.1911 14.592 31.3111 14.4 31.4711 14.24C31.6311 14.064 31.8151 13.952 32.0231 13.904C32.3111 13.824 32.7191 13.784 33.2471 13.784C33.7751 13.768 34.2711 13.768 34.7351 13.784C34.7191 13.624 34.7111 13.472 34.7111 13.328C34.7111 13.168 34.7031 13.016 34.6871 12.872C34.6711 12.68 34.6631 12.44 34.6631 12.152C34.6631 11.848 34.6791 11.552 34.7111 11.264C34.7591 10.96 34.8311 10.68 34.9271 10.424C35.0231 10.152 35.1591 9.94401 35.3351 9.80001C35.5751 9.60801 35.8151 9.50401 36.0551 9.48801C36.3111 9.45601 36.5431 9.48801 36.7511 9.58401C36.9751 9.68001 37.1591 9.82401 37.3031 10.016C37.4631 10.192 37.5751 10.392 37.6391 10.616C37.6871 10.808 37.7271 11.04 37.7591 11.312C37.7911 11.568 37.8071 11.84 37.8071 12.128C37.8231 12.416 37.8311 12.704 37.8311 12.992C37.8311 13.28 37.8311 13.544 37.8311 13.784H38.0711C38.3111 13.784 38.5911 13.776 38.9111 13.76C39.2311 13.744 39.5431 13.752 39.8471 13.784C40.1671 13.816 40.4551 13.896 40.7111 14.024C40.9671 14.136 41.1591 14.336 41.2871 14.624Z" fill="#E25555"/>
<path d="M26.9079 20.984C26.6039 20.792 26.2599 20.64 25.8759 20.528C25.5079 20.416 25.1239 20.312 24.7239 20.216C24.3399 20.12 23.9639 20.016 23.5959 19.904C23.2279 19.776 22.8919 19.6 22.5879 19.376C21.9319 18.88 21.5479 18.272 21.4359 17.552C21.3399 16.816 21.4999 16.08 21.9159 15.344C22.1399 14.96 22.4359 14.648 22.8039 14.408C23.1719 14.152 23.5719 13.96 24.0039 13.832C24.4519 13.688 24.9079 13.608 25.3719 13.592C25.8359 13.576 26.2759 13.6 26.6919 13.664C26.9639 13.712 27.2519 13.784 27.5559 13.88C27.8599 13.96 28.1399 14.072 28.3959 14.216C28.6679 14.36 28.9079 14.544 29.1159 14.768C29.3399 14.976 29.4999 15.24 29.5959 15.56C29.6599 15.768 29.6679 15.968 29.6199 16.16C29.5879 16.352 29.5079 16.512 29.3799 16.64C29.2679 16.768 29.1159 16.864 28.9239 16.928C28.7479 16.992 28.5559 17.008 28.3479 16.976C28.1079 16.928 27.8839 16.856 27.6759 16.76C27.4679 16.664 27.2599 16.56 27.0519 16.448C26.8439 16.336 26.6279 16.24 26.4039 16.16C26.1959 16.08 25.9719 16.04 25.7319 16.04C25.3639 16.024 25.0599 16.088 24.8199 16.232C24.5799 16.376 24.4119 16.552 24.3159 16.76C24.2359 16.968 24.2439 17.192 24.3399 17.432C24.4519 17.672 24.6759 17.88 25.0119 18.056C25.3159 18.216 25.6519 18.344 26.0199 18.44C26.3879 18.536 26.7479 18.632 27.0999 18.728C27.4679 18.824 27.8199 18.936 28.1559 19.064C28.5079 19.192 28.8199 19.368 29.0919 19.592C29.6199 20.024 29.9399 20.528 30.0519 21.104C30.1799 21.68 30.1479 22.248 29.9559 22.808C29.7639 23.368 29.4279 23.864 28.9479 24.296C28.4839 24.728 27.9319 25.016 27.2919 25.16C26.8279 25.256 26.3239 25.304 25.7799 25.304C25.2519 25.304 24.7239 25.248 24.1959 25.136C23.6839 25.024 23.1879 24.848 22.7079 24.608C22.2439 24.368 21.8519 24.064 21.5319 23.696C21.3079 23.44 21.1879 23.152 21.1719 22.832C21.1719 22.496 21.2359 22.208 21.3639 21.968C21.5079 21.712 21.7079 21.536 21.9639 21.44C22.2199 21.344 22.5079 21.4 22.8279 21.608C23.0839 21.784 23.3879 21.96 23.7399 22.136C24.0919 22.296 24.4439 22.424 24.7959 22.52C25.1479 22.616 25.4839 22.664 25.8039 22.664C26.1399 22.664 26.4279 22.592 26.6679 22.448C27.0199 22.224 27.2039 21.968 27.2199 21.68C27.2359 21.376 27.1319 21.144 26.9079 20.984Z" fill="#E25555"/>
<path d="M11.288 11.096L11.24 14.864H12.2C12.856 14.848 13.44 14.84 13.952 14.84C14.464 14.84 15.032 14.848 15.656 14.864H15.776C15.968 14.864 16.152 14.872 16.328 14.888C16.52 14.888 16.704 14.888 16.88 14.888C17.072 14.904 17.256 14.936 17.432 14.984C17.608 15.016 17.784 15.056 17.96 15.104C18.232 15.2 18.456 15.344 18.632 15.536C18.792 15.744 18.872 15.976 18.872 16.232C18.872 16.312 18.872 16.408 18.872 16.52C18.872 16.616 18.856 16.704 18.824 16.784C18.792 16.96 18.688 17.12 18.512 17.264C18.432 17.376 18.28 17.456 18.056 17.504C17.848 17.568 17.64 17.608 17.432 17.624C17.208 17.672 16.984 17.696 16.76 17.696H15.632L11.192 17.72L11.144 22.424L15.92 22.472H17.048C17.176 22.472 17.296 22.472 17.408 22.472C17.52 22.472 17.624 22.48 17.72 22.496C17.848 22.528 17.96 22.552 18.056 22.568C18.168 22.568 18.272 22.584 18.368 22.616C18.56 22.68 18.72 22.768 18.848 22.88C19.008 23.04 19.112 23.208 19.16 23.384C19.176 23.464 19.184 23.552 19.184 23.648C19.2 23.728 19.2 23.816 19.184 23.912C19.184 24.168 19.104 24.4 18.944 24.608C18.752 24.832 18.528 24.976 18.272 25.04C17.936 25.184 17.568 25.256 17.168 25.256C16.992 25.272 16.808 25.28 16.616 25.28C16.424 25.28 16.24 25.288 16.064 25.304H15.92C14.672 25.336 13.376 25.336 12.032 25.304C11.712 25.304 11.456 25.296 11.264 25.28C11.072 25.28 10.896 25.28 10.736 25.28C10.592 25.28 10.44 25.28 10.28 25.28C10.12 25.28 9.912 25.28 9.656 25.28C9.288 25.312 8.984 25.248 8.744 25.088C8.568 24.976 8.432 24.824 8.336 24.632C8.288 24.584 8.264 24.536 8.264 24.488C8.248 24.456 8.232 24.432 8.216 24.416C8.2 24.4 8.184 24.376 8.168 24.344C8.136 24.264 8.112 24.184 8.096 24.104C8.08 24.008 8.072 23.92 8.072 23.84C8.056 23.76 8.04 23.68 8.024 23.6C8.024 23.52 8.016 23.44 8 23.36V22.976C8 22.912 8 22.848 8 22.784C8.016 22.72 8.024 22.656 8.024 22.592V20.72L8.072 17.264V14.072C8.072 13.496 8.072 12.984 8.072 12.536C8.088 12.088 8.104 11.6 8.12 11.072V10.952C8.136 10.776 8.144 10.616 8.144 10.472C8.16 10.312 8.168 10.152 8.168 9.992C8.184 9.672 8.272 9.36 8.432 9.056C8.496 8.928 8.56 8.816 8.624 8.72C8.704 8.624 8.808 8.544 8.936 8.48C9.176 8.336 9.424 8.264 9.68 8.264C9.808 8.264 9.904 8.272 9.968 8.288V8.264C10.256 8.264 10.488 8.264 10.664 8.264C10.84 8.264 11.008 8.264 11.168 8.264C11.344 8.264 11.528 8.264 11.72 8.264C11.912 8.248 12.176 8.24 12.512 8.24C13.152 8.224 13.76 8.216 14.336 8.216C14.912 8.216 15.504 8.224 16.112 8.24H16.208C16.384 8.256 16.568 8.264 16.76 8.264C16.952 8.264 17.136 8.272 17.312 8.288C17.488 8.288 17.664 8.312 17.84 8.36C18.016 8.392 18.192 8.44 18.368 8.504C18.64 8.584 18.864 8.72 19.04 8.912C19.184 9.136 19.256 9.36 19.256 9.584C19.256 9.68 19.256 9.776 19.256 9.872C19.256 9.952 19.24 10.032 19.208 10.112C19.192 10.272 19.096 10.44 18.92 10.616C18.856 10.648 18.784 10.688 18.704 10.736C18.64 10.784 18.56 10.824 18.464 10.856C18.368 10.888 18.264 10.912 18.152 10.928C18.056 10.928 17.96 10.936 17.864 10.952C17.736 10.984 17.616 11 17.504 11C17.408 11 17.296 11 17.168 11H16.088L11.288 11.024V11.096Z" fill="#E25555"/>
<path d="M291.443 58.4445C290.936 58.1245 290.363 57.8711 289.723 57.6845C289.109 57.4978 288.469 57.3245 287.803 57.1645C287.163 57.0045 286.536 56.8311 285.923 56.6445C285.309 56.4311 284.749 56.1378 284.243 55.7645C283.149 54.9378 282.509 53.9245 282.323 52.7245C282.163 51.4978 282.429 50.2711 283.123 49.0445C283.496 48.4045 283.989 47.8845 284.603 47.4845C285.216 47.0578 285.883 46.7378 286.603 46.5245C287.349 46.2845 288.109 46.1511 288.883 46.1245C289.656 46.0978 290.389 46.1378 291.083 46.2445C291.536 46.3245 292.016 46.4445 292.523 46.6045C293.029 46.7378 293.496 46.9245 293.923 47.1645C294.376 47.4045 294.776 47.7111 295.123 48.0845C295.496 48.4311 295.763 48.8711 295.923 49.4045C296.029 49.7511 296.043 50.0845 295.963 50.4045C295.909 50.7245 295.776 50.9911 295.563 51.2045C295.376 51.4178 295.123 51.5778 294.803 51.6845C294.509 51.7911 294.189 51.8178 293.843 51.7645C293.443 51.6845 293.069 51.5645 292.723 51.4045C292.376 51.2445 292.029 51.0711 291.683 50.8845C291.336 50.6978 290.976 50.5378 290.603 50.4045C290.256 50.2711 289.883 50.2045 289.483 50.2045C288.869 50.1778 288.363 50.2845 287.963 50.5245C287.563 50.7645 287.283 51.0578 287.123 51.4045C286.989 51.7511 287.003 52.1245 287.163 52.5245C287.349 52.9245 287.723 53.2711 288.283 53.5645C288.789 53.8311 289.349 54.0445 289.963 54.2045C290.576 54.3645 291.176 54.5245 291.763 54.6845C292.376 54.8445 292.963 55.0311 293.523 55.2445C294.109 55.4578 294.629 55.7511 295.083 56.1245C295.963 56.8445 296.496 57.6845 296.683 58.6445C296.896 59.6045 296.843 60.5511 296.523 61.4845C296.203 62.4178 295.643 63.2445 294.843 63.9645C294.069 64.6845 293.149 65.1645 292.083 65.4045C291.309 65.5645 290.469 65.6445 289.563 65.6445C288.683 65.6445 287.803 65.5511 286.923 65.3645C286.069 65.1778 285.243 64.8845 284.443 64.4845C283.669 64.0845 283.016 63.5778 282.483 62.9645C282.109 62.5378 281.909 62.0578 281.883 61.5245C281.883 60.9645 281.989 60.4845 282.203 60.0845C282.443 59.6578 282.776 59.3645 283.203 59.2045C283.629 59.0445 284.109 59.1378 284.643 59.4845C285.069 59.7778 285.576 60.0711 286.163 60.3645C286.749 60.6311 287.336 60.8445 287.923 61.0045C288.509 61.1645 289.069 61.2445 289.603 61.2445C290.163 61.2445 290.643 61.1245 291.043 60.8845C291.629 60.5111 291.936 60.0845 291.963 59.6045C291.989 59.0978 291.816 58.7111 291.443 58.4445Z" fill="#3E4A59"/>
<path d="M273.679 58.4445C273.172 58.1245 272.599 57.8711 271.959 57.6845C271.345 57.4978 270.705 57.3245 270.039 57.1645C269.399 57.0045 268.772 56.8311 268.159 56.6445C267.545 56.4311 266.985 56.1378 266.479 55.7645C265.385 54.9378 264.745 53.9245 264.559 52.7245C264.399 51.4978 264.665 50.2711 265.359 49.0445C265.732 48.4045 266.225 47.8845 266.839 47.4845C267.452 47.0578 268.119 46.7378 268.839 46.5245C269.585 46.2845 270.345 46.1511 271.119 46.1245C271.892 46.0978 272.625 46.1378 273.319 46.2445C273.772 46.3245 274.252 46.4445 274.759 46.6045C275.265 46.7378 275.732 46.9245 276.159 47.1645C276.612 47.4045 277.012 47.7111 277.359 48.0845C277.732 48.4311 277.999 48.8711 278.159 49.4045C278.265 49.7511 278.279 50.0845 278.199 50.4045C278.145 50.7245 278.012 50.9911 277.799 51.2045C277.612 51.4178 277.359 51.5778 277.039 51.6845C276.745 51.7911 276.425 51.8178 276.079 51.7645C275.679 51.6845 275.305 51.5645 274.959 51.4045C274.612 51.2445 274.265 51.0711 273.919 50.8845C273.572 50.6978 273.212 50.5378 272.839 50.4045C272.492 50.2711 272.119 50.2045 271.719 50.2045C271.105 50.1778 270.599 50.2845 270.199 50.5245C269.799 50.7645 269.519 51.0578 269.359 51.4045C269.225 51.7511 269.239 52.1245 269.399 52.5245C269.585 52.9245 269.959 53.2711 270.519 53.5645C271.025 53.8311 271.585 54.0445 272.199 54.2045C272.812 54.3645 273.412 54.5245 273.999 54.6845C274.612 54.8445 275.199 55.0311 275.759 55.2445C276.345 55.4578 276.865 55.7511 277.319 56.1245C278.199 56.8445 278.732 57.6845 278.919 58.6445C279.132 59.6045 279.079 60.5511 278.759 61.4845C278.439 62.4178 277.879 63.2445 277.079 63.9645C276.305 64.6845 275.385 65.1645 274.319 65.4045C273.545 65.5645 272.705 65.6445 271.799 65.6445C270.919 65.6445 270.039 65.5511 269.159 65.3645C268.305 65.1778 267.479 64.8845 266.679 64.4845C265.905 64.0845 265.252 63.5778 264.719 62.9645C264.345 62.5378 264.145 62.0578 264.119 61.5245C264.119 60.9645 264.225 60.4845 264.439 60.0845C264.679 59.6578 265.012 59.3645 265.439 59.2045C265.865 59.0445 266.345 59.1378 266.879 59.4845C267.305 59.7778 267.812 60.0711 268.399 60.3645C268.985 60.6311 269.572 60.8445 270.159 61.0045C270.745 61.1645 271.305 61.2445 271.839 61.2445C272.399 61.2445 272.879 61.1245 273.279 60.8845C273.865 60.5111 274.172 60.0845 274.199 59.6045C274.225 59.0978 274.052 58.7111 273.679 58.4445Z" fill="#3E4A59"/>
<path d="M258.085 60.0045C258.405 59.9245 258.725 59.8711 259.045 59.8445C259.392 59.8178 259.699 59.8578 259.965 59.9645C260.259 60.0711 260.499 60.2578 260.685 60.5245C260.872 60.7645 260.965 61.1111 260.965 61.5645C260.965 61.8845 260.885 62.1911 260.725 62.4845C260.565 62.7778 260.365 63.0445 260.125 63.2845C259.885 63.5245 259.619 63.7378 259.325 63.9245C259.032 64.0845 258.752 64.2178 258.485 64.3245C257.712 64.6711 256.819 64.9378 255.805 65.1245C254.819 65.3111 253.792 65.3778 252.725 65.3245C251.285 65.2711 249.899 64.9911 248.565 64.4845C247.259 63.9511 246.232 63.0845 245.485 61.8845C244.792 60.7111 244.379 59.4045 244.245 57.9645C244.112 56.5245 244.179 55.1645 244.445 53.8845C244.739 52.3378 245.232 51.0845 245.925 50.1245C246.645 49.1378 247.499 48.3511 248.485 47.7645C249.685 47.0711 251.032 46.7111 252.525 46.6845C254.019 46.6578 255.445 46.9511 256.805 47.5645C257.712 47.9645 258.525 48.5111 259.245 49.2045C259.965 49.8711 260.512 50.6845 260.885 51.6445C260.992 51.8845 261.072 52.1778 261.125 52.5245C261.205 52.8711 261.259 53.2445 261.285 53.6445C261.312 54.0178 261.312 54.3911 261.285 54.7645C261.259 55.1378 261.192 55.4711 261.085 55.7645C260.925 56.2445 260.725 56.6178 260.485 56.8845C260.245 57.1511 259.939 57.3511 259.565 57.4845C259.192 57.6178 258.739 57.7111 258.205 57.7645C257.699 57.7911 257.085 57.8178 256.365 57.8445C255.725 57.8711 255.125 57.8845 254.565 57.8845C254.005 57.8845 253.432 57.8845 252.845 57.8845C252.259 57.8578 251.645 57.8445 251.005 57.8445C250.392 57.8178 249.699 57.7911 248.925 57.7645C248.845 58.2978 248.912 58.7645 249.125 59.1645C249.365 59.5378 249.685 59.8578 250.085 60.1245C250.485 60.3645 250.939 60.5511 251.445 60.6845C251.952 60.8178 252.445 60.8978 252.925 60.9245C253.832 60.9778 254.699 60.9111 255.525 60.7245C256.352 60.5111 257.205 60.2711 258.085 60.0045ZM256.365 52.2445C255.859 51.6578 255.325 51.2311 254.765 50.9645C254.339 50.7778 253.885 50.6978 253.405 50.7245C252.952 50.7245 252.512 50.7911 252.085 50.9245C251.312 51.1111 250.659 51.5111 250.125 52.1245C250.072 52.1778 249.979 52.3111 249.845 52.5245C249.712 52.7111 249.579 52.9111 249.445 53.1245C249.339 53.3378 249.259 53.5378 249.205 53.7245C249.152 53.9111 249.179 54.0045 249.285 54.0045H257.125C257.099 53.6311 257.032 53.3245 256.925 53.0845C256.819 52.8178 256.632 52.5378 256.365 52.2445Z" fill="#3E4A59"/>
<path d="M227.537 51.3245C227.537 51.0045 227.537 50.6445 227.537 50.2445C227.537 49.8178 227.55 49.3911 227.577 48.9645C227.604 48.5111 227.644 48.0845 227.697 47.6845C227.777 47.2578 227.884 46.8845 228.017 46.5645C228.23 46.0845 228.564 45.7645 229.017 45.6045C229.47 45.4178 229.964 45.3378 230.497 45.3645C231.057 45.3645 231.497 45.4578 231.817 45.6445C232.137 45.8311 232.377 46.0845 232.537 46.4045C232.697 46.6978 232.79 47.0445 232.817 47.4445C232.87 47.8178 232.897 48.2178 232.897 48.6445C233.137 48.2178 233.457 47.8711 233.857 47.6045C234.284 47.3378 234.71 47.1245 235.137 46.9645C235.564 46.8045 235.95 46.6978 236.297 46.6445C236.644 46.5645 236.844 46.5245 236.897 46.5245C237.564 46.4711 238.164 46.4578 238.697 46.4845C239.257 46.5111 239.87 46.6311 240.537 46.8445C240.964 47.0045 241.404 47.2311 241.857 47.5245C242.31 47.7911 242.71 48.1111 243.057 48.4845C243.404 48.8578 243.63 49.2711 243.737 49.7245C243.87 50.1511 243.817 50.6045 243.577 51.0845C243.204 51.7511 242.79 52.0845 242.337 52.0845C241.884 52.0578 241.39 51.9778 240.857 51.8445C240.564 51.7911 240.217 51.6711 239.817 51.4845C239.417 51.2978 239.07 51.1778 238.777 51.1245C237.87 50.9911 237.07 51.0578 236.377 51.3245C235.684 51.5911 235.084 51.9111 234.577 52.2845C233.99 52.7378 233.484 53.2578 233.057 53.8445V59.6045C233.057 60.3245 233.044 61.0711 233.017 61.8445C233.017 62.6178 232.91 63.3245 232.697 63.9645C232.51 64.5778 232.177 65.0845 231.697 65.4845C231.244 65.8578 230.577 66.0178 229.697 65.9645C229.217 65.9378 228.79 65.7111 228.417 65.2845C228.044 64.8311 227.817 64.3911 227.737 63.9645C227.684 63.5645 227.644 63.0845 227.617 62.5245C227.59 61.9645 227.564 61.3778 227.537 60.7645C227.537 60.1511 227.537 59.5378 227.537 58.9245C227.537 58.2845 227.537 57.6978 227.537 57.1645V51.3245Z" fill="#3E4A59"/>
<path d="M224.653 57.9245C224.653 58.7778 224.626 59.6978 224.573 60.6845C224.546 61.6711 224.506 62.5911 224.453 63.4445C224.453 64.2445 224.413 65.0445 224.333 65.8445C224.28 66.5378 224.173 67.2845 224.013 68.0845C223.853 68.9111 223.626 69.6711 223.333 70.3645C222.96 71.2711 222.453 72.0445 221.813 72.6845C221.173 73.3511 220.346 73.8311 219.333 74.1245C218.48 74.3378 217.68 74.4711 216.933 74.5245C216.186 74.6045 215.386 74.5911 214.533 74.4845C213.973 74.4045 213.373 74.2445 212.733 74.0045C212.093 73.7911 211.493 73.5111 210.933 73.1645C210.373 72.8178 209.88 72.4045 209.453 71.9245C209.026 71.4711 208.733 70.9511 208.573 70.3645C208.386 69.6445 208.373 69.0178 208.533 68.4845C208.72 67.9511 209 67.5645 209.373 67.3245C209.746 67.0845 210.186 67.0445 210.693 67.2045C211.2 67.3645 211.68 67.7778 212.133 68.4445C212.453 68.9245 212.92 69.3111 213.533 69.6045C214.146 69.8978 214.8 70.0711 215.493 70.1245C216.186 70.1778 216.853 70.0845 217.493 69.8445C218.16 69.6311 218.68 69.2445 219.053 68.6845C219.32 68.2845 219.506 67.7111 219.613 66.9645C219.746 66.2178 219.826 65.4845 219.853 64.7645C218.493 65.3245 217.093 65.5378 215.653 65.4045C214.24 65.2445 212.946 64.8045 211.773 64.0845C210.626 63.3378 209.693 62.3511 208.973 61.1245C208.28 59.8711 207.986 58.4578 208.093 56.8845C208.173 55.5245 208.453 54.2445 208.933 53.0445C209.44 51.8445 210.266 50.8445 211.413 50.0445C212.346 49.4045 213.4 48.9911 214.573 48.8045C215.746 48.5911 216.88 48.4845 217.973 48.4845C218.613 48.4845 219.24 48.4845 219.853 48.4845C220.493 48.4845 221.08 48.5645 221.613 48.7245C222.146 48.8845 222.626 49.1511 223.053 49.5245C223.48 49.8978 223.8 50.4445 224.013 51.1645C224.36 52.2845 224.546 53.3911 224.573 54.4845C224.626 55.5778 224.653 56.7245 224.653 57.9245ZM216.933 61.2445C217.2 61.2445 217.453 61.2178 217.693 61.1645C217.96 61.1111 218.213 61.0445 218.453 60.9645C218.906 60.8045 219.24 60.5911 219.453 60.3245C219.693 60.0578 219.853 59.7645 219.933 59.4445C220.013 59.0978 220.04 58.7245 220.013 58.3245C220.013 57.9245 220.013 57.5111 220.013 57.0845C220.013 56.7378 220 56.3511 219.973 55.9245C219.973 55.4978 219.946 55.0978 219.893 54.7245C219.84 54.3245 219.76 53.9778 219.653 53.6845C219.546 53.3911 219.386 53.2045 219.173 53.1245C218.8 53.0178 218.373 52.9511 217.893 52.9245C217.413 52.8711 216.933 52.8711 216.453 52.9245C215.973 52.9511 215.506 53.0445 215.053 53.2045C214.626 53.3378 214.266 53.5245 213.973 53.7645C213.573 54.1111 213.266 54.5378 213.053 55.0445C212.84 55.5511 212.706 56.0845 212.653 56.6445C212.626 57.2045 212.666 57.7511 212.773 58.2845C212.906 58.8178 213.133 59.2978 213.453 59.7245C213.826 60.2578 214.333 60.6445 214.973 60.8845C215.613 61.1245 216.266 61.2445 216.933 61.2445Z" fill="#3E4A59"/>
<path d="M191.426 47.4045C192.306 46.9778 193.226 46.6711 194.186 46.4845C195.146 46.2978 196.092 46.2578 197.026 46.3645C197.986 46.4711 198.906 46.7245 199.786 47.1245C200.692 47.5245 201.519 48.0845 202.266 48.8045C202.879 49.4178 203.412 50.1645 203.866 51.0445C204.319 51.8978 204.652 52.7378 204.866 53.5645C205.319 55.0311 205.386 56.5111 205.066 58.0045C204.746 59.4978 204.199 60.8845 203.426 62.1645C203.052 62.7511 202.586 63.2845 202.026 63.7645C201.492 64.2178 200.919 64.5911 200.306 64.8845C199.506 65.2578 198.639 65.5111 197.706 65.6445C196.772 65.8045 195.866 65.8445 194.986 65.7645C193.386 65.6845 191.972 65.2845 190.746 64.5645C189.546 63.8445 188.572 62.9245 187.826 61.8045C187.106 60.6845 186.626 59.4178 186.386 58.0045C186.172 56.5645 186.266 55.0978 186.666 53.6045C187.092 52.0045 187.706 50.7111 188.506 49.7245C189.332 48.7111 190.306 47.9378 191.426 47.4045ZM192.626 52.7645C192.226 53.1378 191.919 53.6045 191.706 54.1645C191.492 54.7245 191.359 55.3111 191.306 55.9245C191.252 56.5111 191.292 57.1111 191.426 57.7245C191.586 58.3111 191.826 58.8445 192.146 59.3245C192.412 59.7245 192.892 60.0578 193.586 60.3245C194.279 60.5911 194.999 60.7511 195.746 60.8045C196.599 60.8578 197.346 60.6311 197.986 60.1245C198.626 59.5911 199.106 58.9378 199.426 58.1645C199.772 57.3911 199.932 56.5511 199.906 55.6445C199.879 54.7378 199.639 53.9111 199.186 53.1645C198.866 52.6311 198.412 52.2445 197.826 52.0045C197.266 51.7378 196.666 51.6045 196.026 51.6045C195.412 51.5778 194.799 51.6711 194.186 51.8845C193.572 52.0711 193.052 52.3645 192.626 52.7645Z" fill="#3E4A59"/>
<path d="M168.893 51.3245C168.893 51.0045 168.893 50.6445 168.893 50.2445C168.893 49.8178 168.906 49.3911 168.933 48.9645C168.96 48.5111 169 48.0845 169.053 47.6845C169.133 47.2578 169.24 46.8845 169.373 46.5645C169.586 46.0845 169.92 45.7645 170.373 45.6045C170.826 45.4178 171.32 45.3378 171.853 45.3645C172.413 45.3645 172.853 45.4578 173.173 45.6445C173.493 45.8311 173.733 46.0845 173.893 46.4045C174.053 46.6978 174.146 47.0445 174.173 47.4445C174.226 47.8178 174.253 48.2178 174.253 48.6445C174.493 48.2178 174.813 47.8711 175.213 47.6045C175.64 47.3378 176.066 47.1245 176.493 46.9645C176.92 46.8045 177.306 46.6978 177.653 46.6445C178 46.5645 178.2 46.5245 178.253 46.5245C178.92 46.4711 179.52 46.4578 180.053 46.4845C180.613 46.5111 181.226 46.6311 181.893 46.8445C182.32 47.0045 182.76 47.2311 183.213 47.5245C183.666 47.7911 184.066 48.1111 184.413 48.4845C184.76 48.8578 184.986 49.2711 185.093 49.7245C185.226 50.1511 185.173 50.6045 184.933 51.0845C184.56 51.7511 184.146 52.0845 183.693 52.0845C183.24 52.0578 182.746 51.9778 182.213 51.8445C181.92 51.7911 181.573 51.6711 181.173 51.4845C180.773 51.2978 180.426 51.1778 180.133 51.1245C179.226 50.9911 178.426 51.0578 177.733 51.3245C177.04 51.5911 176.44 51.9111 175.933 52.2845C175.346 52.7378 174.84 53.2578 174.413 53.8445V59.6045C174.413 60.3245 174.4 61.0711 174.373 61.8445C174.373 62.6178 174.266 63.3245 174.053 63.9645C173.866 64.5778 173.533 65.0845 173.053 65.4845C172.6 65.8578 171.933 66.0178 171.053 65.9645C170.573 65.9378 170.146 65.7111 169.773 65.2845C169.4 64.8311 169.173 64.3911 169.093 63.9645C169.04 63.5645 169 63.0845 168.973 62.5245C168.946 61.9645 168.92 61.3778 168.893 60.7645C168.893 60.1511 168.893 59.5378 168.893 58.9245C168.893 58.2845 168.893 57.6978 168.893 57.1645V51.3245Z" fill="#3E4A59"/>
<path d="M163.175 39.6845C164.188 40.6178 164.935 41.7378 165.415 43.0445C165.895 44.3245 166.081 45.6045 165.975 46.8845C165.868 48.1111 165.481 49.2445 164.815 50.2845C164.148 51.2978 163.135 52.0711 161.775 52.6045C160.708 53.0578 159.655 53.3778 158.615 53.5645C157.575 53.7511 156.428 53.8978 155.175 54.0045C154.615 54.0578 154.135 54.0978 153.735 54.1245C153.361 54.1245 152.921 54.1378 152.415 54.1645C152.308 54.1645 152.121 54.1645 151.855 54.1645C151.615 54.1645 151.441 54.1778 151.335 54.2045V62.4845C151.255 62.9911 151.148 63.5111 151.015 64.0445C150.908 64.5778 150.601 64.9911 150.095 65.2845C149.801 65.4445 149.441 65.5378 149.015 65.5645C148.588 65.5911 148.201 65.5778 147.855 65.5245C147.481 65.4711 147.161 65.3778 146.895 65.2445C146.655 65.0845 146.455 64.8178 146.295 64.4445C146.188 64.2045 146.081 63.9378 145.975 63.6445C145.895 63.3245 145.855 62.9378 145.855 62.4845V40.3645C145.855 40.1778 145.868 40.0045 145.895 39.8445C145.921 39.6845 145.948 39.5245 145.975 39.3645C146.028 39.2311 146.068 39.0845 146.095 38.9245C146.121 38.7645 146.161 38.6178 146.215 38.4845C146.268 38.3511 146.321 38.2311 146.375 38.1245C146.455 38.0178 146.548 37.9245 146.655 37.8445C146.788 37.7111 146.988 37.5911 147.255 37.4845C147.548 37.3778 147.975 37.3245 148.535 37.3245H148.615C149.441 37.2711 150.361 37.2311 151.375 37.2045C152.388 37.1511 153.228 37.1645 153.895 37.2445C154.268 37.2978 154.615 37.3378 154.935 37.3645C155.255 37.3645 155.561 37.3778 155.855 37.4045C156.175 37.4311 156.495 37.4578 156.815 37.4845C157.135 37.5111 157.455 37.5511 157.775 37.6045C158.041 37.6578 158.281 37.6978 158.495 37.7245C158.735 37.7511 158.975 37.7911 159.215 37.8445C159.428 37.8978 159.655 37.9511 159.895 38.0045C160.161 38.0578 160.401 38.1511 160.615 38.2845C161.175 38.4445 161.641 38.6445 162.015 38.8845C162.388 39.1245 162.775 39.3911 163.175 39.6845ZM160.775 46.2845C160.801 45.6445 160.668 45.0845 160.375 44.6045C160.108 44.1245 159.721 43.7245 159.215 43.4045C158.708 43.0845 158.135 42.8311 157.495 42.6445C156.855 42.4578 156.215 42.3245 155.575 42.2445C155.415 42.2445 155.188 42.2445 154.895 42.2445C154.628 42.2178 154.335 42.2045 154.015 42.2045C153.695 42.1778 153.388 42.1645 153.095 42.1645C152.828 42.1378 152.615 42.1245 152.455 42.1245C152.321 42.0978 152.161 42.0845 151.975 42.0845C151.788 42.0845 151.575 42.0845 151.335 42.0845C151.361 42.9111 151.375 43.7111 151.375 44.4845C151.375 45.2311 151.375 46.0445 151.375 46.9245C151.348 47.4045 151.335 47.8845 151.335 48.3645C151.335 48.8445 151.335 49.3111 151.335 49.7645L153.815 49.7245C154.455 49.7245 155.161 49.6845 155.935 49.6045C156.708 49.5245 157.441 49.3645 158.135 49.1245C158.828 48.8845 159.415 48.5378 159.895 48.0845C160.401 47.6311 160.695 47.0311 160.775 46.2845Z" fill="#3E4A59"/>
<path d="M115.054 51.2045C115.054 50.5911 115.041 49.9378 115.014 49.2445C115.014 48.5511 115.134 47.9245 115.374 47.3645C115.587 46.8578 115.934 46.4978 116.414 46.2845C116.921 46.0445 117.414 45.9911 117.894 46.1245C118.374 46.2045 118.747 46.3511 119.014 46.5645C119.281 46.7778 119.467 47.0311 119.574 47.3245C119.707 47.5911 119.787 47.9111 119.814 48.2845C119.841 48.6311 119.867 48.9778 119.894 49.3245C120.161 48.8445 120.494 48.4578 120.894 48.1645C121.294 47.8711 121.707 47.6311 122.134 47.4445C122.561 47.2578 122.961 47.1245 123.334 47.0445C123.734 46.9645 124.041 46.9245 124.254 46.9245C125.267 46.9245 126.267 47.1511 127.254 47.6045C128.267 48.0311 129.107 48.6445 129.774 49.4445C130.147 49.9245 130.427 50.4311 130.614 50.9645C130.827 51.4711 130.974 52.0045 131.054 52.5645C131.161 53.1245 131.227 53.6978 131.254 54.2845C131.281 54.8445 131.307 55.4178 131.334 56.0045C131.467 57.7111 131.467 59.4045 131.334 61.0845C131.307 61.4311 131.294 61.8311 131.294 62.2845C131.294 62.7378 131.254 63.1911 131.174 63.6445C131.121 64.0711 131.001 64.4578 130.814 64.8045C130.654 65.1245 130.374 65.3245 129.974 65.4045C129.414 65.5378 128.947 65.5645 128.574 65.4845C128.227 65.4311 127.947 65.3111 127.734 65.1245C127.521 64.9378 127.361 64.6978 127.254 64.4045C127.147 64.1111 127.054 63.7778 126.974 63.4045C126.921 63.1111 126.867 62.7778 126.814 62.4045C126.787 62.0045 126.761 61.6045 126.734 61.2045C126.734 60.8045 126.721 60.4178 126.694 60.0445C126.694 59.6445 126.694 59.2845 126.694 58.9645C126.694 58.4578 126.681 57.8978 126.654 57.2845C126.627 56.6711 126.627 56.0978 126.654 55.5645C126.654 54.3111 126.321 53.3645 125.654 52.7245C125.014 52.0578 124.134 51.7778 123.014 51.8845C122.161 51.9911 121.414 52.3378 120.774 52.9245C120.134 53.4845 119.827 54.2178 119.854 55.1245C119.854 55.4711 119.854 55.7911 119.854 56.0845C119.854 56.3778 119.841 56.6711 119.814 56.9645C119.814 57.2578 119.814 57.5778 119.814 57.9245C119.814 58.2711 119.814 58.6578 119.814 59.0845C119.814 59.9645 119.814 60.8978 119.814 61.8845C119.814 62.8445 119.694 63.6311 119.454 64.2445C119.241 64.8845 118.881 65.3245 118.374 65.5645C117.867 65.8045 117.267 65.7378 116.574 65.3645C116.281 65.2045 116.041 64.9911 115.854 64.7245C115.694 64.4311 115.561 64.1245 115.454 63.8045C115.374 63.4845 115.321 63.1645 115.294 62.8445C115.267 62.4978 115.241 62.1778 115.214 61.8845C115.134 61.0045 115.081 60.1911 115.054 59.4445C115.054 58.6711 115.054 57.8445 115.054 56.9645V51.2045Z" fill="#3E4A59"/>
<path d="M111.47 50.3245C111.47 51.0711 111.47 51.9111 111.47 52.8445C111.496 53.7778 111.51 54.7511 111.51 55.7645C111.51 56.7511 111.51 57.7378 111.51 58.7245C111.51 59.6845 111.496 60.5778 111.47 61.4045C111.443 61.8045 111.403 62.2445 111.35 62.7245C111.296 63.1778 111.19 63.6045 111.03 64.0045C110.87 64.4045 110.616 64.7378 110.27 65.0045C109.95 65.2445 109.51 65.3511 108.95 65.3245C108.123 65.2711 107.523 64.9111 107.15 64.2445C106.803 63.5778 106.603 62.6445 106.55 61.4445C106.55 60.8311 106.536 60.1245 106.51 59.3245C106.51 58.5245 106.496 57.7111 106.47 56.8845C106.47 56.0578 106.47 55.2578 106.47 54.4845C106.47 53.6845 106.47 52.9645 106.47 52.3245C106.47 51.9511 106.456 51.4978 106.43 50.9645C106.43 50.4311 106.443 49.8845 106.47 49.3245C106.496 48.7645 106.563 48.2311 106.67 47.7245C106.776 47.1911 106.95 46.7511 107.19 46.4045C107.376 46.1911 107.643 46.0311 107.99 45.9245C108.336 45.7911 108.696 45.7245 109.07 45.7245C109.47 45.7245 109.843 45.7911 110.19 45.9245C110.563 46.0578 110.83 46.2445 110.99 46.4845C111.096 46.6445 111.176 46.8711 111.23 47.1645C111.283 47.4578 111.323 47.7911 111.35 48.1645C111.403 48.5111 111.43 48.8845 111.43 49.2845C111.456 49.6578 111.47 50.0045 111.47 50.3245Z" fill="#3E4A59"/>
<path d="M108.816 35.5086C109.613 35.5529 110.411 35.8618 111.208 36.4373C111.961 36.9685 112.492 37.5894 112.802 38.2977C113.156 39.006 113.267 39.6931 113.134 40.3572C113.045 41.0214 112.757 41.642 112.27 42.2176C111.783 42.7487 111.095 43.1473 110.21 43.4129C108.838 43.7668 107.688 43.6331 106.758 43.0135C105.872 42.3492 105.318 41.3756 105.097 40.0916C104.92 39.1622 104.985 38.3428 105.295 37.6346C105.605 36.9262 106.072 36.395 106.691 36.0408C107.311 35.6425 108.019 35.4644 108.816 35.5086ZM109.296 37.2029C108.811 37.1757 108.378 37.2842 108.001 37.5291C107.624 37.7467 107.342 38.0738 107.153 38.5086C106.965 38.944 106.924 39.4489 107.031 40.0203C107.166 40.8094 107.504 41.4089 108.042 41.8172C108.608 42.1982 109.309 42.2799 110.144 42.0623C110.682 41.899 111.101 41.6536 111.398 41.327C111.694 40.9733 111.869 40.5914 111.923 40.1834C112.003 39.7754 111.935 39.3529 111.72 38.9178C111.531 38.4825 111.208 38.1007 110.75 37.7742C110.266 37.4207 109.781 37.2303 109.296 37.2029Z" fill="#3E4A59"/>
<path d="M86.2444 56.2845C86.831 56.8978 87.2577 57.3511 87.5244 57.6445C87.8177 57.9111 88.0177 58.1111 88.1244 58.2445C88.2577 58.3778 88.351 58.4578 88.4044 58.4845C88.4577 58.5111 88.551 58.5911 88.6844 58.7245C88.8177 58.8578 89.031 59.0711 89.3244 59.3645C89.6177 59.6311 90.0577 60.0711 90.6444 60.6845C91.1244 61.1645 91.511 61.7245 91.8044 62.3645C92.1244 62.9778 92.0977 63.6445 91.7244 64.3645C91.511 64.7378 91.271 65.0045 91.0044 65.1645C90.7377 65.2978 90.4444 65.3511 90.1244 65.3245C89.831 65.2978 89.511 65.2045 89.1644 65.0445C88.8444 64.8845 88.5244 64.6845 88.2044 64.4445C87.591 63.9911 87.0044 63.4711 86.4444 62.8845C85.8844 62.2711 85.431 61.8045 85.0844 61.4845C84.8444 61.2445 84.6977 61.0845 84.6444 61.0045C84.591 60.9511 84.5377 60.9111 84.4844 60.8845C84.431 60.8311 84.3777 60.7778 84.3244 60.7245C84.1377 60.5378 83.9377 60.3511 83.7244 60.1645C83.511 59.9778 83.2977 59.7778 83.0844 59.5645V61.1245C83.0844 61.4178 83.0977 61.6311 83.1244 61.7645C83.1244 62.0311 83.111 62.2311 83.0844 62.3645C83.0044 62.6578 82.9644 62.9378 82.9644 63.2045C82.9377 63.3378 82.911 63.4711 82.8844 63.6045C82.8577 63.7111 82.8177 63.8311 82.7644 63.9645C82.7377 64.0178 82.711 64.0578 82.6844 64.0845C82.6844 64.1111 82.6844 64.1511 82.6844 64.2045C82.6577 64.2578 82.631 64.2978 82.6044 64.3245C82.6044 64.3511 82.591 64.3911 82.5644 64.4445C82.431 64.7111 82.2177 64.9645 81.9244 65.2045C81.4177 65.4978 80.791 65.5778 80.0444 65.4445C79.6444 65.3645 79.3377 65.2178 79.1244 65.0045C78.8844 64.8445 78.7244 64.6178 78.6444 64.3245C78.591 64.1911 78.5377 64.0578 78.4844 63.9245C78.4577 63.7645 78.4177 63.6178 78.3644 63.4845C78.311 63.3511 78.2844 63.2311 78.2844 63.1245C78.2844 62.9911 78.2844 62.8845 78.2844 62.8045V40.0445C78.2844 39.8845 78.2844 39.7245 78.2844 39.5645C78.2844 39.4045 78.2977 39.2445 78.3244 39.0845C78.351 38.9245 78.3777 38.7778 78.4044 38.6445C78.4577 38.4845 78.511 38.3378 78.5644 38.2045C78.671 37.9378 78.8044 37.7245 78.9644 37.5645C79.0977 37.4311 79.231 37.3378 79.3644 37.2845C79.5244 37.2045 79.671 37.1378 79.8044 37.0845C79.9377 37.0578 80.0844 37.0445 80.2444 37.0445C80.431 37.0178 80.6044 37.0045 80.7644 37.0045C81.1377 37.0045 81.511 37.1111 81.8844 37.3245C82.231 37.5645 82.4844 37.8711 82.6444 38.2445C82.8577 38.7511 82.9644 39.2445 82.9644 39.7245C82.991 39.9911 83.0177 40.4045 83.0444 40.9645C83.071 41.4978 83.0844 41.8978 83.0844 42.1645V42.3245C83.111 43.2045 83.1244 44.0445 83.1244 44.8445C83.1244 45.6445 83.1244 46.5111 83.1244 47.4445C83.0977 48.3778 83.0844 49.2711 83.0844 50.1245C83.0844 50.9511 83.0844 51.7778 83.0844 52.6045V53.0445C83.2977 52.8311 83.511 52.6311 83.7244 52.4445C83.9377 52.2578 84.1377 52.0578 84.3244 51.8445C84.431 51.7645 84.5377 51.6711 84.6444 51.5645L85.0844 51.1245C85.431 50.7778 85.8844 50.3111 86.4444 49.7245C87.0044 49.1111 87.591 48.5778 88.2044 48.1245C88.871 47.6445 89.511 47.3511 90.1244 47.2445C90.7644 47.1378 91.2977 47.4578 91.7244 48.2045C92.0977 48.9245 92.1244 49.6045 91.8044 50.2445C91.511 50.8578 91.1244 51.4311 90.6444 51.9645C90.0577 52.5778 89.6177 53.0311 89.3244 53.3245C89.031 53.5911 88.8177 53.7911 88.6844 53.9245C88.551 54.0311 88.4577 54.0978 88.4044 54.1245C88.351 54.1511 88.2577 54.2311 88.1244 54.3645C88.0177 54.4711 87.8177 54.6711 87.5244 54.9645C87.2577 55.2311 86.831 55.6711 86.2444 56.2845Z" fill="#3E4A59"/>
<path d="M59.1931 51.3245C59.1931 51.0045 59.1931 50.6445 59.1931 50.2445C59.1931 49.8178 59.2064 49.3911 59.2331 48.9645C59.2598 48.5111 59.2998 48.0845 59.3531 47.6845C59.4331 47.2578 59.5398 46.8845 59.6731 46.5645C59.8864 46.0845 60.2198 45.7645 60.6731 45.6045C61.1264 45.4178 61.6198 45.3378 62.1531 45.3645C62.7131 45.3645 63.1531 45.4578 63.4731 45.6445C63.7931 45.8311 64.0331 46.0845 64.1931 46.4045C64.3531 46.6978 64.4465 47.0445 64.4731 47.4445C64.5265 47.8178 64.5531 48.2178 64.5531 48.6445C64.7931 48.2178 65.1131 47.8711 65.5131 47.6045C65.9398 47.3378 66.3665 47.1245 66.7931 46.9645C67.2198 46.8045 67.6065 46.6978 67.9531 46.6445C68.2998 46.5645 68.4998 46.5245 68.5531 46.5245C69.2198 46.4711 69.8198 46.4578 70.3531 46.4845C70.9131 46.5111 71.5265 46.6311 72.1931 46.8445C72.6198 47.0045 73.0598 47.2311 73.5131 47.5245C73.9665 47.7911 74.3664 48.1111 74.7131 48.4845C75.0598 48.8578 75.2864 49.2711 75.3931 49.7245C75.5264 50.1511 75.4731 50.6045 75.2331 51.0845C74.8598 51.7511 74.4464 52.0845 73.9931 52.0845C73.5398 52.0578 73.0465 51.9778 72.5131 51.8445C72.2198 51.7911 71.8731 51.6711 71.4731 51.4845C71.0731 51.2978 70.7264 51.1778 70.4331 51.1245C69.5264 50.9911 68.7264 51.0578 68.0331 51.3245C67.3398 51.5911 66.7398 51.9111 66.2331 52.2845C65.6464 52.7378 65.1398 53.2578 64.7131 53.8445V59.6045C64.7131 60.3245 64.6998 61.0711 64.6731 61.8445C64.6731 62.6178 64.5664 63.3245 64.3531 63.9645C64.1664 64.5778 63.8331 65.0845 63.3531 65.4845C62.8998 65.8578 62.2331 66.0178 61.3531 65.9645C60.8731 65.9378 60.4464 65.7111 60.0731 65.2845C59.6998 64.8311 59.4731 64.3911 59.3931 63.9645C59.3398 63.5645 59.2998 63.0845 59.2731 62.5245C59.2465 61.9645 59.2198 61.3778 59.1931 60.7645C59.1931 60.1511 59.1931 59.5378 59.1931 58.9245C59.1931 58.2845 59.1931 57.6978 59.1931 57.1645V51.3245Z" fill="#3E4A59"/>
<path d="M42.5256 47.4045C43.4056 46.9778 44.3256 46.6711 45.2856 46.4845C46.2456 46.2978 47.1923 46.2578 48.1256 46.3645C49.0856 46.4711 50.0056 46.7245 50.8856 47.1245C51.7923 47.5245 52.619 48.0845 53.3656 48.8045C53.979 49.4178 54.5123 50.1645 54.9656 51.0445C55.419 51.8978 55.7523 52.7378 55.9656 53.5645C56.419 55.0311 56.4856 56.5111 56.1656 58.0045C55.8456 59.4978 55.299 60.8845 54.5256 62.1645C54.1523 62.7511 53.6856 63.2845 53.1256 63.7645C52.5923 64.2178 52.019 64.5911 51.4056 64.8845C50.6056 65.2578 49.739 65.5111 48.8056 65.6445C47.8723 65.8045 46.9656 65.8445 46.0856 65.7645C44.4856 65.6845 43.0723 65.2845 41.8456 64.5645C40.6456 63.8445 39.6723 62.9245 38.9256 61.8045C38.2056 60.6845 37.7256 59.4178 37.4856 58.0045C37.2723 56.5645 37.3656 55.0978 37.7656 53.6045C38.1923 52.0045 38.8056 50.7111 39.6056 49.7245C40.4323 48.7111 41.4056 47.9378 42.5256 47.4045ZM43.7256 52.7645C43.3256 53.1378 43.019 53.6045 42.8056 54.1645C42.5923 54.7245 42.459 55.3111 42.4056 55.9245C42.3523 56.5111 42.3923 57.1111 42.5256 57.7245C42.6856 58.3111 42.9256 58.8445 43.2456 59.3245C43.5123 59.7245 43.9923 60.0578 44.6856 60.3245C45.379 60.5911 46.099 60.7511 46.8456 60.8045C47.699 60.8578 48.4456 60.6311 49.0856 60.1245C49.7256 59.5911 50.2056 58.9378 50.5256 58.1645C50.8723 57.3911 51.0323 56.5511 51.0056 55.6445C50.979 54.7378 50.739 53.9111 50.2856 53.1645C49.9656 52.6311 49.5123 52.2445 48.9256 52.0045C48.3656 51.7378 47.7656 51.6045 47.1256 51.6045C46.5123 51.5778 45.899 51.6711 45.2856 51.8845C44.6723 52.0711 44.1523 52.3645 43.7256 52.7645Z" fill="#3E4A59"/>
<path d="M36.56 38.7645C36.6667 39.2711 36.6667 39.8045 36.56 40.3645C36.5067 40.6311 36.4533 40.8978 36.4 41.1645C36.3733 41.4045 36.3333 41.6578 36.28 41.9245L36.24 42.0845C35.8667 43.7378 35.44 45.4845 34.96 47.3245C34.5067 49.1378 34.0933 50.8578 33.72 52.4845C33.4 53.8178 33.0667 55.2845 32.72 56.8845C32.3733 58.4845 32.0133 59.9511 31.64 61.2845C31.5067 61.7378 31.36 62.1911 31.2 62.6445C31.0667 63.0978 30.8933 63.5511 30.68 64.0045C30.4933 64.4045 30.2667 64.7645 30 65.0845C29.76 65.3778 29.48 65.5911 29.16 65.7245C28.84 65.8845 28.4933 65.9378 28.12 65.8845C27.7733 65.8578 27.3867 65.6978 26.96 65.4045C26.32 64.9511 25.84 64.3245 25.52 63.5245C25.2267 62.7245 24.92 61.9911 24.6 61.3245C24.4933 61.1378 24.3333 60.7245 24.12 60.0845C23.9067 59.4445 23.68 58.7511 23.44 58.0045C23.2 57.2311 22.96 56.4978 22.72 55.8045C22.5067 55.0845 22.32 54.5511 22.16 54.2045C21.92 54.7911 21.68 55.4578 21.44 56.2045C21.2 56.9511 20.9733 57.6845 20.76 58.4045C20.5467 59.1245 20.3467 59.7778 20.16 60.3645C20 60.9245 19.88 61.3378 19.8 61.6045C19.5867 62.1378 19.3467 62.7245 19.08 63.3645C18.84 64.0045 18.5333 64.5511 18.16 65.0045C17.8133 65.4578 17.3867 65.7511 16.88 65.8845C16.3733 66.0445 15.7733 65.8978 15.08 65.4445C14.5467 65.1245 14.1733 64.6711 13.96 64.0845C13.8267 63.7111 13.6933 63.3511 13.56 63.0045C13.4267 62.6578 13.32 62.2978 13.24 61.9245L12.44 58.9245L10.8 52.4845C10.5867 51.6578 10.3733 50.8178 10.16 49.9645C9.97333 49.0845 9.74667 48.1778 9.48 47.2445C9.34667 46.7911 9.22667 46.3511 9.12 45.9245C9.04 45.4711 8.94667 44.9911 8.84 44.4845C8.76 43.9511 8.65333 43.3511 8.52 42.6845C8.41333 42.0178 8.28 41.2445 8.12 40.3645C8.06667 40.0711 8.02667 39.8045 8 39.5645C8 39.2978 8.02667 39.0311 8.08 38.7645C8.13333 38.3645 8.32 38.0178 8.64 37.7245C8.77333 37.5911 8.93333 37.4845 9.12 37.4045C9.30667 37.3245 9.50667 37.2578 9.72 37.2045C10.04 37.0978 10.3733 37.0445 10.72 37.0445C11.04 37.0445 11.3733 37.1511 11.72 37.3645C11.96 37.4978 12.1467 37.6711 12.28 37.8845L12.76 38.7245C12.8133 38.9111 12.8667 39.0845 12.92 39.2445C12.9733 39.3778 13.0267 39.5245 13.08 39.6845C13.1333 39.8711 13.1733 40.0445 13.2 40.2045C13.2267 40.3378 13.2533 40.4711 13.28 40.6045C13.52 41.9911 13.8133 43.3378 14.16 44.6445C14.5067 45.9511 14.8267 47.2045 15.12 48.4045C15.2267 48.8845 15.36 49.4845 15.52 50.2045C15.68 50.8978 15.84 51.6311 16 52.4045C16.16 53.1511 16.32 53.8711 16.48 54.5645C16.64 55.2578 16.8 55.8045 16.96 56.2045C17.3067 55.0045 17.6533 53.8045 18 52.6045C18.3733 51.4045 18.7733 50.1911 19.2 48.9645C19.4133 48.3245 19.6267 47.7511 19.84 47.2445C20.08 46.7111 20.3467 46.2711 20.64 45.9245C20.9333 45.5778 21.2667 45.3511 21.64 45.2445C22.0133 45.1378 22.4533 45.1778 22.96 45.3645C23.4133 45.5511 23.8133 45.9511 24.16 46.5645C24.5067 47.1778 24.8133 47.8045 25.08 48.4445C25.32 49.0311 25.5467 49.6578 25.76 50.3245C26 50.9645 26.2267 51.6045 26.44 52.2445C26.68 52.8578 26.9067 53.4445 27.12 54.0045C27.3333 54.5645 27.5467 55.0445 27.76 55.4445C27.84 55.1511 27.9333 54.7778 28.04 54.3245C28.1467 53.8711 28.2533 53.3911 28.36 52.8845C28.4933 52.3511 28.6133 51.8311 28.72 51.3245C28.8267 50.8178 28.9333 50.3511 29.04 49.9245C29.3867 48.4845 29.7467 47.0445 30.12 45.6045C30.4933 44.1378 30.8533 42.6978 31.2 41.2845L31.4 40.6045C31.4533 40.4711 31.48 40.3378 31.48 40.2045C31.5067 40.0445 31.5467 39.8711 31.6 39.6845C31.6533 39.5245 31.7067 39.3778 31.76 39.2445C31.8133 39.0845 31.8667 38.9111 31.92 38.7245C31.9733 38.5911 32.0267 38.4578 32.08 38.3245C32.16 38.1645 32.2533 38.0178 32.36 37.8845C32.44 37.7511 32.5333 37.6445 32.64 37.5645C32.7467 37.4845 32.8533 37.4178 32.96 37.3645C33.3333 37.1511 33.6533 37.0445 33.92 37.0445C34.2667 37.0445 34.6 37.0978 34.92 37.2045C35.3467 37.2845 35.7333 37.4578 36.08 37.7245C36.3467 37.9911 36.5067 38.3378 36.56 38.7645Z" fill="#3E4A59"/>
</svg>
